<?xml version="1.0" encoding="UTF-8"?>
<svg width="18px" height="23px" viewBox="0 0 18 23" version="1.1" xmlns="http://www.w3.org/2000/svg" xmlns:xlink="http://www.w3.org/1999/xlink">
    <!-- Generator: Sketch 48.2 (47327) - http://www.bohemiancoding.com/sketch -->
    <title>3-grey copy</title>
    <desc>Created with Sketch.</desc>
    <defs></defs>
    <g id="Customer-Logo---Grey-Small" stroke="none" stroke-width="1" fill="none" fill-rule="evenodd" transform="translate(-1395.000000, -868.000000)">
        <g id="3-grey-copy" transform="translate(1394.000000, 868.000000)" fill="#8091A6" fill-rule="nonzero">
            <path d="M3.9951048,6.05308233 C4.1538061,6.05308233 4.28264018,6.05136987 4.41147427,6.05332696 C5.64337103,6.0733871 6.87653335,6.03204365 8.10665833,6.1267177 C8.63718136,6.16757188 9.16896996,6.22481666 9.64304899,6.4868216 C10.2226758,6.8072945 10.3234144,7.39124015 9.88856776,7.87635294 C9.57698672,8.22398042 9.17301976,8.45980933 8.78069594,8.70762539 C8.22587414,9.05794386 7.66016852,9.39333954 7.16508118,9.82389854 C7.09395668,9.8857914 6.98005622,9.95575728 7.02915997,10.0594829 C7.07497327,10.1568478 7.20481979,10.1245559 7.30201485,10.1336074 C7.31416424,10.134586 7.32681984,10.1296933 7.33922233,10.129204 C7.72167477,10.1177062 8.0790691,10.0044397 8.4189987,9.85056385 C9.58306142,9.32361833 10.6939706,8.7110503 11.6838922,7.90937877 C11.8180416,7.80076048 11.9529504,7.69165292 12.096465,7.59502177 C12.6026892,7.25473338 13.024374,7.40396122 13.1926936,7.97958925 C13.2301542,8.10777841 13.2526811,8.2389032 13.2547061,8.37296362 C13.2552123,8.41724269 13.2420505,8.46910548 13.2977351,8.49772787 C13.7427063,7.88515983 13.9441835,6.90710591 13.2878637,6.15998817 C13.146121,5.99901782 12.9985566,5.84147236 12.8694694,5.67120585 C12.6882411,5.43195203 12.7249424,5.17312736 12.954515,4.97570627 C13.0631002,4.88225539 13.186872,4.81155565 13.3276024,4.77339246 C13.4746605,4.73351682 13.6232373,4.69877854 13.7925693,4.65670118 C13.4323908,4.42772208 13.0600629,4.28583331 12.6510336,4.23690615 C12.1103861,4.17256693 11.5947967,4.28265305 11.0842695,4.4401985 C10.7638295,4.539276 10.4492111,4.6650188 10.1085222,4.68850383 C9.77593287,4.7114996 9.6015386,4.52582103 9.65342659,4.20754986 C9.6951901,3.95190545 9.80934367,3.7253727 9.95716115,3.51205027 C9.99310308,3.46018749 10.0589122,3.42006721 10.0460035,3.33762495 C10.0138583,3.33493395 9.98196614,3.32563779 9.95285825,3.33101979 C9.89160511,3.34227303 9.83136442,3.35964217 9.77188307,3.37750059 C8.81410675,3.66763864 7.91581178,4.08939076 7.02713508,4.53291547 C6.09492308,4.99821276 5.18700985,5.50925695 4.22720863,5.92342535 C4.15734968,5.95376019 4.0743289,5.96550271 3.9951048,6.05308233 M9.52813609,19.727245 C9.56154689,19.727245 9.58027718,19.7314038 9.59622325,19.7265111 C10.7704104,19.3690982 11.7011038,18.7144528 12.3062949,17.6586047 C12.4394319,17.4264453 12.559407,17.1859683 12.726461,16.9731351 C12.9922288,16.6343146 13.3744281,16.6392073 13.629059,16.984633 C13.7735859,17.1803416 13.8462291,17.4046727 13.8892582,17.6385445 C13.9125445,17.7652659 13.9284906,17.8932104 13.9502582,18.0368116 C14.3595406,17.5218533 14.5607647,16.5848981 14.4326899,15.8754543 C14.3668808,15.510947 14.247665,15.1616071 14.1317396,14.8110439 C14.0816234,14.6593698 14.0550467,14.5057384 14.0697271,14.3469698 C14.0975694,14.0416644 14.3203082,13.856475 14.6480884,13.8559858 C14.893354,13.8554965 15.1277359,13.9296212 15.3851509,13.9663165 C14.7754038,13.1032414 12.7092494,11.954921 11.7479295,11.9399982 C12.0473611,12.3201622 12.137216,12.7472963 12.1020334,13.2084348 C12.0185064,14.3026908 11.5431618,15.1792209 10.5653896,15.766836 C9.98070058,16.118133 9.32944306,16.2463222 8.64730585,16.2313994 C8.51366265,16.2284637 8.43216053,16.258554 8.36711071,16.3811165 C8.2519447,16.5973745 8.08438447,16.7791389 7.89227235,16.9369291 C7.8391188,16.9807189 7.78748392,17.0501954 7.7075005,17.0044485 C7.93631387,16.4234385 7.8765794,15.8749651 7.52525975,15.3614745 C7.38149206,15.151577 7.17191521,15.0238771 6.90437569,14.9977011 C6.59001041,14.9668769 6.30930906,15.1973239 6.29336299,15.5009169 C6.28906009,15.5850716 6.28906009,15.6704495 6.27387335,15.7531364 C6.22401027,16.0261499 6.0579687,16.1506696 5.77119266,16.1222919 C5.44391867,16.0899999 5.2340887,15.8893986 5.06222556,15.6384022 C5.01615915,15.571372 5.00223799,15.4825692 4.92427945,15.4297279 C4.74684784,15.9610769 4.8480927,16.3808719 5.25205967,16.7850102 C5.40418006,16.9371737 5.57022162,17.0763714 5.7180391,17.2319598 C5.95393962,17.4797759 5.92533794,17.75915 5.65450796,17.9719832 C5.52567389,18.0732624 5.37735017,18.1334428 5.21915509,18.1752755 C5.18144138,18.1850609 5.12904716,18.1733183 5.11639156,18.2361898 C5.94710559,18.8323672 6.87071177,18.9747453 7.87075782,18.7778135 C8.32382854,18.6885214 8.75766274,18.5253493 9.21604882,18.4592977 C9.58078341,18.4067009 9.75619011,18.5549503 9.76074613,18.9148095 C9.7620117,19.0114406 9.75062165,19.106604 9.73037268,19.2025012 C9.69189964,19.3847548 9.60837263,19.550618 9.52813609,19.727245 M14.9115781,5.1569814 C14.8298229,5.14010152 14.7936278,5.13251781 14.7574328,5.12517874 C14.328914,5.04004549 13.9019138,5.01582654 13.4842788,5.173372 C13.1638388,5.29422207 13.1499176,5.34779732 13.3761999,5.58974213 C13.6718349,5.90605621 13.9532955,6.23435745 14.069221,6.65415248 C14.3084119,7.52089713 14.0598557,8.27633248 13.4655485,8.93954012 C13.2592621,9.16949778 13.0188055,9.36276006 12.7186146,9.51932698 C12.7545565,9.32386297 12.7937889,9.15946772 12.8137848,8.99287073 C12.8512453,8.67924763 12.8606105,8.364646 12.7591125,8.05885125 C12.6852037,7.83525412 12.5839589,7.79806949 12.387797,7.92772646 C12.2437762,8.02313443 12.1065894,8.12955099 11.9734524,8.23914783 C11.0670579,8.98455311 10.0518251,9.56458459 8.99077902,10.0739164 C8.5253058,10.2970242 8.0370525,10.4633766 7.49513941,10.5582952 C7.63004818,10.636334 7.7495171,10.6681366 7.86873292,10.6989608 C8.64907764,10.9012746 9.45093689,10.9944809 10.243431,11.1356357 C11.3702862,11.3364817 12.4844858,11.5791604 13.5300921,12.0503289 C14.6982046,12.5762959 15.6407942,13.3361347 16.2049811,14.4829874 C16.2482632,14.5710562 16.2867363,14.6613268 16.3444459,14.7880482 C15.877454,14.5798631 15.4550098,14.4010343 14.9956113,14.3207938 C14.480275,14.2305232 14.4278808,14.2811629 14.5858228,14.7608936 C14.7493332,15.2572597 14.891076,15.7565613 14.9052503,16.2825283 C14.9376487,17.4946987 14.387889,18.4392375 13.4452995,19.2604799 C13.5065527,18.9260627 13.5576812,18.636414 13.5417352,18.3413832 C13.5219925,17.9778544 13.4873161,17.6162826 13.3141874,17.2852905 C13.2314197,17.1270111 13.162067,17.1221183 13.0631002,17.2686552 C12.9400877,17.4504196 12.830237,17.6405016 12.7208926,17.830339 C12.0587512,18.9786595 11.0792072,19.7441249 9.77390797,20.1174391 C9.37019411,20.2329072 8.96040556,20.3153495 8.491895,20.3566929 C8.58858384,20.2656884 8.65312743,20.2104007 8.71159633,20.1494864 C8.99179147,19.856902 9.20212766,19.5241973 9.30868787,19.1366941 C9.37449702,18.8974403 9.32109035,18.8502256 9.06975001,18.9152988 C8.73792,19.0009213 8.40988667,19.1031791 8.07451309,19.1733895 C6.97904376,19.4023686 5.93520931,19.3101409 4.99059483,18.6691951 C4.63725029,18.4294521 4.32794726,18.1459192 4.06268574,17.8132145 C4.24264847,17.8132145 4.40464024,17.8110128 4.56637889,17.8137038 C4.8129101,17.8178625 5.05412597,17.7919312 5.2819269,17.6960339 C5.41152031,17.6414801 5.4593585,17.5702911 5.32925887,17.4594711 C5.21687708,17.3635739 5.11006375,17.2610715 5.00603467,17.156612 C4.14570652,16.2950047 4.24872316,15.2161609 5.21485218,14.3496608 C5.20675259,14.4340602 5.19536254,14.5047599 5.19409698,14.5754597 C5.18650362,14.9607611 5.24345385,15.3255131 5.56718428,15.5975481 C5.62970297,15.6501447 5.71044574,15.7054324 5.78562005,15.6817028 C5.86762838,15.656016 5.83927982,15.5584063 5.8430765,15.4889297 C5.86459103,15.0784309 6.07923012,14.7956319 6.46345434,14.6366187 C6.91450017,14.4502061 7.50450456,14.6165585 7.83380345,15.0069972 C7.89682837,15.0816112 7.93251718,15.1806886 8.04262096,15.2526116 C8.03325581,14.5962537 7.84924329,14.0350592 7.36098998,13.5969164 C6.34702276,12.6876052 4.48538301,12.6198411 3.36485558,13.4802252 C2.22256051,14.3574892 1.86693796,15.5275823 2.15194223,16.8831092 C2.43542782,18.2303185 3.25728292,19.2299004 4.41071492,19.9907177 C5.49175686,20.7038311 6.70720133,21.0680938 7.9932641,21.237871 C9.98120681,21.5003652 11.9033404,21.2887553 13.7125859,20.4229892 C16.0381802,19.3098963 17.5204049,17.5849693 17.771239,15.0111561 C17.8742556,13.954574 17.7028988,12.951078 17.1050479,12.0388311 C16.6481805,11.3418637 16.017425,10.8132057 15.3388314,10.3298054 C15.1024247,10.161496 14.8579183,10.0022381 14.6501132,9.79870106 C14.3711837,9.52568751 14.33347,9.28251952 14.5303912,8.94859166 C14.6139182,8.80719216 14.7118727,8.67337638 14.8088146,8.54004987 C15.4279269,7.68847265 15.9009934,6.78013993 16.0022383,5.72331327 C16.1477778,4.20461422 15.5754912,3.02644821 14.2102044,2.24067802 C13.2655899,1.69709727 12.2149214,1.52242732 11.1346388,1.4874444 C9.75492456,1.44292068 8.42127671,1.68755648 7.12736748,2.13572927 C5.61957849,2.65778207 4.2264493,3.37798986 3.03505047,4.42870062 C2.7060047,4.71883867 2.39923278,5.03148323 2.22559786,5.4385572 C2.09651067,5.74117168 2.2306601,5.92905197 2.57337393,5.94446403 C2.73789682,5.9518031 2.89735747,5.92685026 3.05504632,5.88550681 C3.8156483,5.6866179 4.5018353,5.32431228 5.19510944,4.97790799 C6.39916387,4.37634855 7.57866642,3.72635124 8.84372087,3.24588653 C9.59166723,2.96186437 10.3537879,2.73239598 11.171087,2.75123294 C11.2449957,2.75294539 11.3272571,2.7311728 11.4090124,2.79624593 C11.3429501,2.83587693 11.2897966,2.86572249 11.2384148,2.89850369 C10.7934436,3.18252585 10.4094725,3.52232498 10.1778749,3.99789697 C10.1444641,4.06663963 10.0847297,4.15470852 10.135099,4.21709065 C10.1839496,4.27751569 10.2763356,4.22051555 10.3459414,4.20241251 C10.8638089,4.06835208 11.3664895,3.87949325 11.9046059,3.81857894 C13.1706729,3.67571162 14.1413579,4.15128363 14.9115781,5.1569814 M10.0553687,0.753781635 L11.5950498,0.753781635 C11.6239046,0.815429856 11.6821204,0.78607356 11.7269212,0.790232369 C12.42627,0.855550128 13.1129632,0.97713412 13.7710549,1.22348237 C14.9556196,1.66651781 15.8835287,2.38868268 16.4067115,3.53259968 C16.9443216,4.70831934 16.8645913,5.89822787 16.4548028,7.08789176 C16.1933379,7.84724128 15.7541884,8.51485238 15.2775783,9.16069089 C15.1988604,9.26759673 15.2056944,9.32606469 15.3160513,9.40654987 C15.7202713,9.701336 16.1358815,9.9819333 16.5188402,10.303874 C17.453077,11.0893995 18.134708,12.0273332 18.4156625,13.2116151 C18.4607165,13.4021864 18.4586915,13.6022984 18.5424717,13.7843075 L18.5424717,15.2000149 C18.4817248,15.2276588 18.5057704,15.2844142 18.500202,15.3277147 C18.3020151,16.9315471 17.622156,18.313984 16.4360725,19.4512958 C14.9657441,20.8611319 13.1628264,21.6263527 11.1402072,21.9526968 C10.9040536,21.9906154 10.6603067,21.9813192 10.4309871,22.0600919 L8.55314813,22.0600919 C8.32585344,21.9717785 8.081094,21.9884137 7.8451935,21.9556325 C6.53306018,21.7733788 5.28724225,21.4066698 4.16443682,20.709947 C2.78649435,19.8551895 1.82137778,18.7005085 1.43259754,17.1355733 C1.3837469,16.9388862 1.38627802,16.7326581 1.30528213,16.5428207 L1.30528213,15.5992605 C1.35868879,15.5765093 1.34097094,15.5273375 1.34729875,15.4886851 C1.50245649,14.549773 1.91680105,13.7400284 2.65285114,13.1020183 C3.55367724,12.3213854 4.6271258,12.0730801 5.80688147,12.20078 C6.45130496,12.2705012 7.05219317,12.470124 7.56854193,12.8598288 C8.40052152,13.4878089 8.73260464,14.3318024 8.66350503,15.3323629 C8.65135565,15.5107024 8.71109011,15.5378569 8.87434744,15.5358998 C10.1135845,15.5202431 11.4204024,14.5399875 11.3606679,12.9112024 C11.3462406,12.514403 11.1389417,12.226956 10.7704104,12.0510629 C10.6185432,11.9786507 10.4595887,11.9233629 10.2925347,11.8944959 C9.66532286,11.7858777 9.03532675,11.6904697 8.41140534,11.5669286 C7.80393622,11.4468124 7.2027949,11.2941597 6.69328016,10.927206 C6.14276127,10.530896 6.07568655,9.9971007 6.5021805,9.48287624 C6.55280293,9.42171729 6.60823449,9.36349397 6.66569094,9.30796164 C7.20557912,8.78541957 7.86392379,8.41919978 8.49442612,8.01603998 C8.76044698,7.84601811 9.0343143,7.68627093 9.26844303,7.47441632 C9.46409871,7.29754464 9.44309041,7.17963018 9.19782474,7.06978871 C9.12467534,7.03700751 9.04621058,7.01352248 8.96799892,6.99297307 C8.63414402,6.90612737 8.29143019,6.87677107 7.94821013,6.85255212 C6.76794825,6.77010986 5.58490212,6.80974085 4.40337468,6.78576654 C3.72123747,6.77182231 3.0378347,6.76301542 2.37366846,6.59201499 C1.42297928,6.34737919 1.17012025,5.74215023 1.66191713,4.91821685 C1.94742762,4.43995387 2.33620786,4.04535632 2.77054829,3.69699494 C4.70280633,2.14624861 6.92411843,1.22005747 9.40233935,0.854326948 C9.62001579,0.822035023 9.84731049,0.844786153 10.0553687,0.753781635" id="Fill-1"></path>
        </g>
    </g>
</svg>