<?xml version="1.0" encoding="UTF-8"?>
<svg width="72px" height="23px" viewBox="0 0 72 23" version="1.1" xmlns="http://www.w3.org/2000/svg" xmlns:xlink="http://www.w3.org/1999/xlink">
    <!-- Generator: Sketch 48.2 (47327) - http://www.bohemiancoding.com/sketch -->
    <title>ref_bogo-grey</title>
    <desc>Created with Sketch.</desc>
    <defs></defs>
    <g id="Customer-Logo---Grey-Small" stroke="none" stroke-width="1" fill="none" fill-rule="evenodd" transform="translate(-598.000000, -943.000000)">
        <g id="ref_bogo-grey" transform="translate(598.000000, 943.000000)" fill="#8091A6" fill-rule="nonzero">
            <path d="M60.7621153,16.568557 C60.7621153,15.3440594 61.2424254,14.1928484 62.1146211,13.3268955 C62.986817,12.4609425 64.1463275,11.9840705 65.3796529,11.9840705 C66.6129783,11.9840705 67.7727451,12.4609425 68.6449409,13.3268955 C69.5168805,14.1928484 69.9974467,15.3440594 69.9974467,16.568557 C69.9974467,19.0964371 67.9257574,21.1530434 65.3796529,21.1530434 C64.1463275,21.1530434 62.986817,20.6761713 62.1146211,19.8102184 C61.2424254,18.94452 60.7621153,17.7930546 60.7621153,16.568557 M65.3796529,22.7404116 C67.0402338,22.7404116 68.6011133,22.0983901 69.7752329,20.9326746 C70.9493525,19.7669589 71.5960026,18.2169974 71.5960026,16.568557 C71.5960026,14.9201165 70.9493525,13.370155 69.7752329,12.2044394 C68.6011133,11.0387237 67.0402338,10.3967022 65.3796529,10.3967022 C63.7193282,10.3967022 62.1581926,11.0387237 60.9840729,12.2044394 C59.8099532,13.370155 59.1635595,14.9201165 59.1635595,16.568557 C59.1635595,18.2169974 59.8099532,19.7669589 60.9840729,20.9326746 C62.1581926,22.0983901 63.7193282,22.7404116 65.3796529,22.7404116" id="Fill-1"></path>
            <path d="M52.0829849,21.1593288 L52.8393322,21.1593288 C54.6175557,21.1593288 56.0641245,19.7231141 56.0641245,17.9576187 C56.0641245,17.1026079 55.7286251,16.2984906 55.1196515,15.6938758 C54.5104215,15.0892611 53.7007634,14.756163 52.8393322,14.756163 C52.8393322,14.756163 52.2144679,14.7526006 52.0829849,14.7518372 L52.0829849,21.1593288 Z M55.9792885,11.5503815 C57.026795,10.5103728 57.6037309,9.12734202 57.6037309,7.65651989 C57.6037309,6.18569774 57.026795,4.80292136 55.9792885,3.76291269 C54.937677,2.72875677 53.5549275,2.15722277 52.0829849,2.15060661 L52.0829849,13.1624331 C53.5549275,13.1560714 54.937677,12.584283 55.9792885,11.5503815 Z M57.0370471,15.5981961 C57.4463614,16.3140131 57.6626803,17.129836 57.6626803,17.9576187 C57.6626803,19.2368268 57.1610973,20.4394402 56.2499435,21.3438177 C55.339046,22.2484497 54.1277626,22.7464425 52.8393322,22.7464425 L50.5013449,22.7464425 L50.475971,22.7464425 L50.475971,22.7212503 L50.475971,0.586903839 L50.475971,0.561711556 L50.5013449,0.561711556 L52.057611,0.562983894 C53.966036,0.562983894 55.7601503,1.30068518 57.1095805,2.64071102 C58.459267,3.98048239 59.2022867,5.76175489 59.2022867,7.65651989 C59.2022867,10.282879 57.754949,12.6769091 55.4223442,13.915148 C56.0889858,14.3360372 56.6472117,14.9167321 57.0370471,15.5981961 Z" id="Fill-4"></path>
            <path d="M66.6905097,6.82115397 L64.967391,5.12792724 L64.1964346,5.89311101 C63.9731954,6.11500667 63.839662,6.43767146 63.839662,6.75626477 C63.839662,7.07129552 63.9631996,7.3603706 64.1964346,7.5921905 C64.7300554,8.12173736 65.4661548,8.03165587 65.9077632,7.59804325 C66.2753004,7.23720833 66.611056,6.90105678 66.6905097,6.82115397 Z M66.9324588,0.918271415 L66.9145177,0.93608414 L66.5569764,1.28979396 L66.0392461,1.80203704 C66.0392461,1.80203704 66.0207924,1.82010423 66.0207924,1.82035869 L66.0028513,1.80152811 C65.9267296,1.72238871 65.7119484,1.53840871 65.3615836,1.53840871 C65.1332185,1.53840871 64.8851181,1.64401272 64.7136521,1.81425148 C64.5972909,1.92977972 64.4588878,2.13106351 64.4588878,2.43464324 C64.4588878,2.71964683 64.5632028,2.90057323 64.7333873,3.07157539 C65.0476136,3.38762402 67.5955122,5.92237477 67.5955122,5.92237477 L68.4556618,5.06838185 L68.473603,5.05056912 L68.4918004,5.06838185 L69.3652778,5.9401875 L69.383219,5.95825469 L69.3652778,5.97606741 L68.5051282,6.82547992 L69.7156427,8.02732992 L69.7335838,8.04514264 L69.7156427,8.06295537 L68.8467787,8.93170741 L68.8285813,8.9497746 L68.8106402,8.93196188 L67.5998693,7.72985741 C67.3991848,7.92350718 67.1915802,8.12962585 66.8232742,8.49529565 C66.4134472,8.90218918 65.8095996,9.1744694 65.2085713,9.22332717 C64.7049378,9.26429643 63.9629434,9.17243367 63.2868186,8.50114841 C62.805227,8.0227495 62.5504628,7.4300947 62.5504628,6.78680086 C62.5504628,6.12213176 62.8303446,5.4312525 63.2809236,4.98415311 L63.7673849,4.50448187 L64.0577751,4.21871487 C64.042397,4.20344682 64.0247122,4.18614303 64.0024139,4.16476776 C63.7532883,3.92658618 63.1702011,3.36879343 63.1702011,2.43006283 C63.1702011,1.88524791 63.3916461,1.33890619 63.7778932,0.93099479 C64.1907959,0.494837497 64.7533788,0.254365712 65.3615836,0.254365712 C66.1584267,0.254365712 66.6707744,0.653370749 66.9052908,0.891043392 L66.9324588,0.918271415 Z" id="Fill-6"></path>
            <path d="M0.923841418,20.6889965 L1.20679887,20.6889965 C1.70581895,20.6889965 2.12794841,20.6429379 2.12794841,20.1169535 C2.12794841,19.6927562 1.7624617,19.5856254 1.46412612,19.5856254 L0.923841418,19.5856254 L0.923841418,20.6889965 Z M0.923841418,22.3135169 L1.30983229,22.3135169 C1.77271379,22.3135169 2.1897172,22.2163104 2.1897172,21.7361302 C2.1897172,21.1844447 1.70069291,21.10785 1.25831558,21.10785 L0.923841418,21.10785 L0.923841418,22.3135169 Z M0.40944322,19.1667719 L1.38185317,19.1667719 C2.12794841,19.1667719 2.64234661,19.4067348 2.64234661,20.0658055 C2.64234661,20.5561645 2.35426311,20.8014711 1.90137741,20.9136912 L1.90137741,20.92387 C2.3901454,20.9648392 2.73487165,21.2816513 2.73487165,21.7821889 C2.73487165,22.5483905 2.09693586,22.7323705 1.36647504,22.7323705 L0.40944322,22.7323705 L0.40944322,19.1667719 Z" id="Fill-9"></path>
            <path d="M5.06155595,19.6468757 L4.34647326,21.414407 L5.77663865,21.414407 L5.06155595,19.6468757 Z M4.80935475,19.1666956 L5.34963945,19.1666956 L6.86746014,22.7322942 L6.30667127,22.7322942 L5.94144087,21.8332605 L4.18167105,21.8332605 L3.81644063,22.7322942 L3.27615592,22.7322942 L4.80935475,19.1666956 Z" id="Fill-11"></path>
            <polygon id="Fill-13" points="7.65468493 19.1663404 8.3539726 19.1663404 9.9389589 22.0379149 9.94980822 22.0379149 9.94980822 19.1663404 10.4636712 19.1663404 10.4636712 22.7318298 9.80482192 22.7318298 8.17939726 19.7995745 8.16854795 19.7995745 8.16854795 22.7318298 7.65468493 22.7318298"></polygon>
            <path d="M14.3489423,19.8001161 C14.0967411,19.6367479 13.8240358,19.5548093 13.3611543,19.5548093 C12.5325298,19.5548093 11.981993,20.1525535 11.981993,20.9495458 C11.981993,21.7872528 12.5891726,22.3440277 13.3352678,22.3440277 C13.6902461,22.3440277 13.7830275,22.3084022 13.9116911,22.2829554 L13.9116911,21.1999418 L13.1553438,21.1999418 L13.1553438,20.7808338 L14.4260892,20.7808338 L14.4260892,22.6353929 C14.2305308,22.7018089 13.8909306,22.7936717 13.3301417,22.7936717 C12.1929296,22.7936717 11.4365823,22.0681849 11.4365823,20.9342777 C11.4365823,19.835996 12.2393202,19.1054198 13.3352678,19.1054198 C13.8601744,19.1054198 14.0916151,19.1820145 14.390207,19.284056 L14.3489423,19.8001161 Z" id="Fill-15"></path>
            <path d="M23.4202149,22.3441295 C24.2485831,22.3441295 24.6035615,21.6596119 24.6035615,20.9496476 C24.6035615,20.2241607 24.2127008,19.5498219 23.4202149,19.5549111 C22.627729,19.5498219 22.2368684,20.2241607 22.2368684,20.9496476 C22.2368684,21.6596119 22.5918468,22.3441295 23.4202149,22.3441295 M23.4202149,19.1052671 C24.5110364,19.1052671 25.1489722,19.8920806 25.1489722,20.9496476 C25.1489722,22.0324067 24.5161624,22.7937735 23.4202149,22.7937735 C22.3242674,22.7937735 21.6914577,22.0324067 21.6914577,20.9496476 C21.6914577,19.8920806 22.3293934,19.1052671 23.4202149,19.1052671" id="Fill-17"></path>
            <polygon id="Fill-19" points="26.1734795 19.1663404 26.6883288 19.1663404 26.6883288 22.2825957 28.1904658 22.2825957 28.1904658 22.7318298 26.1734795 22.7318298"></polygon>
            <path d="M31.6564554,21.2560518 C31.6564554,22.2573815 31.1471832,22.7937989 30.2621723,22.7937989 C29.3771614,22.7937989 28.8676329,22.2573815 28.8676329,21.2560518 L28.8676329,19.1666193 L29.3822874,19.1666193 L29.3822874,21.1896358 C29.3822874,21.8741534 29.59835,22.3441549 30.2621723,22.3441549 C30.9257383,22.3441549 31.1418009,21.8741534 31.1418009,21.1896358 L31.1418009,19.1666193 L31.6564554,19.1666193 L31.6564554,21.2560518 Z" id="Fill-21"></path>
            <polygon id="Fill-23" points="32.8980822 19.1663404 34.8065753 19.1663404 34.8065753 19.6165532 33.4129315 19.6165532 33.4129315 20.6579149 34.7454247 20.6579149 34.7454247 21.1081277 33.4129315 21.1081277 33.4129315 22.7318298 32.8980822 22.7318298"></polygon>
            <path d="M37.6727101,19.7030622 C37.4102568,19.6010207 37.2662151,19.554962 36.9986358,19.554962 C36.7105522,19.554962 36.3709521,19.6570035 36.3709521,20.0300529 C36.3709521,20.7145705 37.914403,20.5562917 37.914403,21.7311681 C37.914403,22.4922804 37.3228579,22.7938244 36.6023928,22.7938244 C36.3504479,22.7938244 36.1033728,22.7220646 35.8668059,22.6454699 L35.9180664,22.170379 C36.0931207,22.2418844 36.4017083,22.3441803 36.6641616,22.3441803 C36.9576274,22.3441803 37.3692486,22.1805578 37.3692486,21.7617042 C37.3692486,20.9649665 35.8255413,21.1845719 35.8255413,20.075857 C35.8255413,19.4424874 36.3296874,19.105318 36.9781316,19.105318 C37.2146984,19.105318 37.4976558,19.1462873 37.744731,19.2330607 L37.6727101,19.7030622 Z" id="Fill-25"></path>
            <polygon id="Fill-27" points="39.0841644 19.1663404 41.0952329 19.1663404 41.0952329 19.6165532 39.5980274 19.6165532 39.5980274 20.6579149 40.9620822 20.6579149 40.9620822 21.1081277 39.5980274 21.1081277 39.5980274 22.2825957 41.0952329 22.2825957 41.0952329 22.7318298 39.0841644 22.7318298"></polygon>
            <polygon id="Fill-29" points="42.2847123 19.1663404 42.9849863 19.1663404 44.5699726 22.0379149 44.5798356 22.0379149 44.5798356 19.1663404 45.0946849 19.1663404 45.0946849 22.7318298 44.4358356 22.7318298 42.810411 19.7995745 42.7995616 19.7995745 42.7995616 22.7318298 42.2847123 22.7318298"></polygon>
            <path d="M17.9690293,21.0979003 C17.9690293,21.0979003 17.8170422,21.2487996 17.6425005,21.4220919 C17.4679589,21.5953842 17.4164421,21.9157589 17.6425005,22.1401992 C17.8685589,22.3646395 18.1899616,22.3147638 18.3657849,22.1427438 C18.5416081,21.9707239 18.6974397,21.8134629 18.6974397,21.8134629 L17.9690293,21.0979003 Z M19.5675852,22.6799248 C19.5675852,22.6799248 19.1608338,22.2760848 19.0590819,22.1750613 C18.9737333,22.2572542 18.88941,22.3409741 18.72999,22.4992528 C18.4144823,22.8125023 17.7634751,22.9809598 17.2808583,22.5017975 C16.7910652,22.0155101 16.9771404,21.3597474 17.2782953,21.0604936 C17.395169,20.9444564 17.5345973,20.8085708 17.6073872,20.736302 C17.5445931,20.6691225 17.2357492,20.4296687 17.2357492,19.9958016 C17.2357492,19.5469209 17.5999544,19.1056743 18.1322937,19.1056743 C18.5216165,19.1056743 18.7399858,19.3425835 18.7676665,19.370066 C18.7412673,19.3960217 18.4467763,19.6871325 18.4055117,19.7283562 C18.3657849,19.6871325 18.2753102,19.6161361 18.1322937,19.6161361 C17.9639032,19.6161361 17.748097,19.7515128 17.748097,19.9975828 C17.748097,20.1525535 17.851643,20.2556129 17.8647144,20.2688452 C18.0361805,20.439084 19.0570315,21.456445 19.0570315,21.456445 L19.4207241,21.0953556 L19.7823662,21.456445 L19.4186737,21.8154986 L19.9274332,22.3203621 L19.5675852,22.6799248 Z" id="Fill-31"></path>
        </g>
    </g>
</svg>