<?xml version="1.0" encoding="UTF-8"?>
<svg width="105px" height="23px" viewBox="0 0 105 23" version="1.1" xmlns="http://www.w3.org/2000/svg" xmlns:xlink="http://www.w3.org/1999/xlink">
    <!-- Generator: Sketch 48.2 (47327) - http://www.bohemiancoding.com/sketch -->
    <title>campaign-monitor-grey</title>
    <desc>Created with Sketch.</desc>
    <defs></defs>
    <g id="Customer-Logo---Grey-Small" stroke="none" stroke-width="1" fill="none" fill-rule="evenodd" transform="translate(-1702.000000, -965.000000)">
        <g id="campaign-monitor-grey" transform="translate(1702.000000, 965.000000)" fill="#8091A6">
            <path d="M52.249833,3.1461465 C53.765844,2.95195796 54.6995977,1.73909145 55.9322694,1.05066388 C56.5690525,0.695409271 57.1578009,-0.249230266 57.8526798,0.119338271 C58.5683305,0.498622898 58.1256332,1.51957398 58.1577645,2.25248957 C58.2148867,3.55205898 58.1736678,4.85584989 58.172045,6.15801714 C58.1713959,6.6253036 58.1434839,7.15169091 57.5320164,7.1429232 C54.1377876,7.09486316 50.7370676,7.41115017 47.3490054,6.98770226 C48.581028,5.83685918 50.105802,5.10134576 51.4426569,4.09922901 C51.7905833,3.83847083 52.2534031,3.69656383 52.249833,3.1461465" id="Fill-1"></path>
            <path d="M63.5761,13.9564078 C63.5761,15.8541299 63.5683106,17.3696447 63.5803193,18.8848349 C63.5845385,19.4271339 63.5550038,19.8440872 62.8231252,19.8655194 C62.051326,19.8879258 61.9416253,19.5037702 61.9477919,18.8663253 C61.9692128,16.5724326 61.9562304,14.2778905 61.9555813,11.9836731 C61.9552568,11.5790596 61.8952135,11.1283344 62.4469623,11.0309154 C62.908484,10.9490834 63.3307341,11.0159778 63.640038,11.4491676 C64.2920752,12.3636072 65.0129188,13.2319352 65.6152987,14.1768995 C66.1326444,14.988075 66.4497376,14.8734453 66.9164522,14.1428028 C67.4717712,13.2735007 68.1358171,12.4749896 68.7255392,11.6267949 C69.0731409,11.1270354 69.5164873,10.8841374 70.1042621,11.0338379 C70.7997901,11.2108158 70.5768187,11.8115662 70.5803888,12.2661882 C70.5969413,14.4704554 70.5829853,16.6747226 70.5910993,18.8793145 C70.5930466,19.4157684 70.5742222,19.8447367 69.8381244,19.86487 C69.0647024,19.8863021 68.9540281,19.4943531 68.964414,18.8604801 C68.9890804,17.3491867 68.9722034,15.8375686 68.9722034,13.9687476 C68.1114752,15.0666597 67.4471047,15.880433 66.8223304,16.7234321 C66.4179309,17.2689784 66.0949956,17.2829418 65.6902716,16.7250557 C65.0839971,15.8892007 64.4391001,15.0815972 63.5761,13.9564078" id="Fill-3"></path>
            <path d="M15.8464529,16.4028261 C15.8464529,15.5942485 15.8477511,14.7856708 15.8461283,13.9770931 C15.8445056,12.9925118 16.7727418,12.8392392 17.0742563,13.2529452 C17.6604082,14.0563272 17.9995715,13.5393571 18.435453,13.2948354 C18.8158352,13.0814878 19.303646,12.9707549 19.5986693,13.1425371 C20.8339376,13.8605151 21.9273739,13.5991074 23.231773,13.1870251 C24.6737847,12.7320783 25.7185373,13.7624466 25.7954575,15.3146559 C25.8551762,16.5245999 25.8074662,17.7397395 25.8314835,18.9519566 C25.842843,19.5354963 25.7039322,19.8842563 25.0119742,19.865422 C24.3083322,19.8465877 24.2194033,19.4390515 24.2226489,18.8889589 C24.2284909,17.9008056 24.2119385,16.9126522 24.2171314,15.9244989 C24.2216752,15.0763041 23.8565473,14.4826977 22.9769948,14.5034804 C22.1376875,14.523289 21.7050515,15.0912417 21.6923938,15.9335913 C21.6774641,16.9217447 21.6777887,17.909898 21.6803851,18.8980514 C21.6816834,19.4523655 21.5700354,19.8488608 20.8741828,19.8650973 C20.1413305,19.8819832 20.0965415,19.4578859 20.1027081,18.9113653 C20.1140676,17.9232119 20.1322429,16.9334349 20.0868048,15.94723 C20.0504542,15.1555383 19.6953877,14.4969858 18.8083703,14.5119234 C17.9025286,14.5275105 17.4533402,15.1331319 17.432893,16.0189953 C17.4098494,17.0064992 17.4166651,17.995302 17.4267264,18.9834554 C17.4319193,19.4936062 17.3316309,19.8491855 16.7016636,19.8628242 C16.0441088,19.8771123 15.8286022,19.5699177 15.8419091,18.9629974 C15.8600843,18.1099317 15.8464529,17.2562165 15.8464529,16.4028261" id="Fill-5"></path>
            <path d="M47.7738519,18.5420499 C48.8426218,18.5488692 49.5800179,17.6948293 49.5647637,16.4676747 C49.5501585,15.3197542 48.8283413,14.4787035 47.8348689,14.4530499 C46.8254931,14.426422 46.020589,15.363268 46.0371414,16.5449605 C46.0540185,17.7117153 46.7699937,18.5355553 47.7738519,18.5420499 M49.4966065,19.2811353 C48.243163,19.9607952 46.970246,20.2803295 45.7479602,19.2639247 C44.5292444,18.2504424 44.4049386,16.8677421 44.7041812,15.4431516 C45.1098789,13.510034 47.1334988,12.5433128 48.879946,13.436645 C49.3427659,13.6736979 49.510887,13.8208006 49.9909085,13.3161702 C50.4436671,12.8407655 51.1989138,12.9732553 51.1911244,13.9730989 C51.1761947,15.9516788 51.2495449,17.9351295 51.1294584,19.90689 C51.0463715,21.2727044 50.2148536,22.1942881 48.860148,22.6037726 C47.4801268,23.0207259 46.2912704,22.7375613 45.2929297,21.7039458 C45.0154325,21.416235 44.6905498,21.083062 45.0959229,20.6661087 C45.4711121,20.2803295 45.7424427,20.4923782 46.110167,20.7895061 C47.7693081,22.1283679 49.2518896,21.5604151 49.6942624,19.4584379 C49.698157,19.3535501 49.7023763,19.2486623 49.7069201,19.1440993 C49.6368156,19.1898862 49.566711,19.2353484 49.4966065,19.2811353" id="Fill-7"></path>
            <path d="M30.2731263,18.5391598 C31.3396243,18.5284437 32.0620907,17.6692081 32.036126,16.442703 C32.0117842,15.2967309 31.2789319,14.4647726 30.2835122,14.4530823 C29.2828995,14.4413921 28.4802672,15.4006444 28.5120739,16.5706466 C28.5438806,17.743896 29.2643997,18.5492264 30.2731263,18.5391598 M28.4234696,19.1012674 C28.4234696,20.0585714 28.4192503,20.8207127 28.4250924,21.582854 C28.4293116,22.1219058 28.3666719,22.5576934 27.6539423,22.581074 C26.949002,22.6038051 26.8464417,22.2258194 26.8490381,21.6526709 C26.8620204,19.0879535 26.8636432,16.5229113 26.8506609,13.9581938 C26.845468,12.9210063 27.7711077,12.871972 28.0771661,13.258076 C28.6256693,13.9500756 28.9307539,13.5769608 29.408828,13.3548455 C30.6265701,12.7888411 32.0909763,13.1755946 32.9134066,14.2420078 C33.8737741,15.4870226 33.8718267,17.538342 32.9085382,18.7762127 C32.0799414,19.841327 30.6421489,20.2008031 29.400065,19.6403192 C29.1215941,19.5146487 28.8629213,19.3457891 28.4234696,19.1012674" id="Fill-9"></path>
            <path d="M37.5566649,14.4524329 C36.554754,14.4413921 35.7647795,15.3740166 35.7826302,16.547266 C35.8004809,17.7055779 36.5093159,18.528119 37.5018146,18.5417576 C38.5303393,18.5553963 39.3018139,17.6532964 39.2803931,16.4612126 C39.2602705,15.3331006 38.5134623,14.463149 37.5566649,14.4524329 M37.2905273,13.1148701 C37.6965495,13.1087002 38.0895894,13.1463689 38.4605593,13.3444542 C38.9103968,13.5841049 39.2774721,14.0715246 39.8013089,13.2398911 C40.0294732,12.8781419 40.9317448,12.993421 40.9239554,13.918252 C40.9138941,15.1275465 40.9119468,16.3374905 40.9284992,17.5464602 C40.9340167,17.9335384 40.7753078,18.3855625 41.1485497,18.6826904 C41.536072,18.9908592 41.6571322,19.3931997 41.3270566,19.7068888 C40.9638761,20.0524015 40.3936275,19.9156902 40.1070426,19.6007021 C39.5702235,19.0109925 39.1921133,19.095747 38.6234875,19.558812 C38.0331162,20.0400618 37.2519048,19.9650492 36.5528067,19.8211938 C35.0643831,19.5143239 34.1393925,17.8614483 34.3506798,16.0007455 C34.550283,14.2449304 35.7021398,13.1138959 37.2905273,13.1148701" id="Fill-11"></path>
            <path d="M4.92026866,19.8974079 C2.75514144,19.9178659 1.10508795,18.7998206 0.393007429,16.9969197 C-0.270713929,15.3161172 0.233649391,13.3109096 1.62762652,12.0876517 C3.03036672,10.856925 5.0455481,10.5857755 6.64399684,11.4580002 C7.02989645,11.6684253 7.73159111,11.7953947 7.42455913,12.4747298 C7.16004426,13.0595685 6.73097842,13.258628 6.00526646,12.9108422 C4.4983431,12.1886427 3.16895304,12.5325318 2.27447086,13.7002608 C1.50169797,14.7095216 1.50981192,16.2006817 2.29329523,17.2060458 C3.16668113,18.3263642 4.54670226,18.6556404 6.04648534,17.932142 C6.72318903,17.6054637 7.08831691,17.827579 7.38301569,18.3136998 C7.79617817,18.9956327 7.12077272,19.1365655 6.73746958,19.3700464 C6.11107241,19.7522536 5.41554435,19.9207885 4.92026866,19.8974079" id="Fill-13"></path>
            <path d="M11.1499346,14.4504196 C10.2070933,14.4302863 9.41646968,15.298939 9.36713685,16.4095156 C9.31390932,17.6071198 10.0561737,18.5293529 11.0837248,18.5423421 C12.1002408,18.5553313 12.8061547,17.7802009 12.8483473,16.6053278 C12.8911889,15.4018784 12.1583367,14.4718517 11.1499346,14.4504196 M7.92090586,16.536485 C7.89948502,13.737962 10.0542264,12.3757197 12.526061,13.6239817 C12.7490325,13.736663 13.0008896,14.1682292 13.1287655,13.5064295 C13.2430099,12.9157456 13.7678204,13.1297427 14.1261326,13.1771533 C14.5383214,13.2313832 14.5013218,13.6220334 14.5032691,13.9295527 C14.5110585,15.1424192 14.4977516,16.3556104 14.5130059,17.5681522 C14.5178742,17.956854 14.374095,18.4014093 14.7453895,18.7050319 C15.0829299,18.9810524 15.1663414,19.3512445 14.9394752,19.6516198 C14.6470484,20.0393474 14.1173695,19.9451757 13.8603195,19.6750003 C13.1940017,18.9752072 12.6977523,19.3148748 11.992812,19.6564907 C9.98899021,20.6277581 7.94005479,19.0132006 7.92090586,16.536485" id="Fill-15"></path>
            <path d="M96.1639749,14.4593496 C95.0543106,14.4359691 94.2594678,15.2435726 94.2224682,16.4314349 C94.1854685,17.613452 94.9257856,18.4824295 96.0175991,18.5389325 C97.1425176,18.5973839 98.0629644,17.6852173 98.063289,16.5116432 C98.0636135,15.3796344 97.2327447,14.481756 96.1639749,14.4593496 M96.114642,19.8722738 C94.1169868,19.869676 92.6567998,18.4879499 92.6285632,16.5733419 C92.5996776,14.6145706 94.1130921,13.1165911 96.1230805,13.1146427 C98.049333,13.1126944 99.5994226,14.5820976 99.6373959,16.445723 C99.6763428,18.3742944 98.1337181,19.8748717 96.114642,19.8722738" id="Fill-17"></path>
            <path d="M74.7291179,18.540069 C75.8371594,18.5387701 76.5911079,17.7288935 76.6053884,16.5241453 C76.6193444,15.3356335 75.860203,14.483542 74.7641702,14.4575636 C73.6499622,14.4312605 72.7428222,15.3853172 72.7704097,16.5549946 C72.7963743,17.6607002 73.665541,18.541368 74.7291179,18.540069 M74.7391792,13.1122073 C76.6936683,13.1118825 78.1616446,14.540045 78.1798199,16.4598487 C78.1989688,18.4536909 76.7222294,19.9143263 74.6976358,19.9042597 C72.7249715,19.8945178 71.3446259,18.4842155 71.3530644,16.4874508 C71.3618274,14.5095204 72.7632694,13.112532 74.7391792,13.1122073" id="Fill-19"></path>
            <path d="M84.8706829,17.2834614 C84.8719812,17.8683001 84.8593234,18.4531388 84.8755513,19.0373281 C84.8908055,19.5793024 84.7071056,19.8621422 84.1079713,19.882925 C83.4325659,19.9066302 83.2508133,19.5952142 83.2715851,18.9879691 C83.2991725,18.1790667 83.259901,17.3685407 83.28262,16.5596383 C83.3108566,15.5455065 83.2063489,14.5187103 81.9408968,14.4937061 C80.5469196,14.4664287 80.5417267,15.5935665 80.5456214,16.6177649 C80.5485424,17.382504 80.5362092,18.1472432 80.5485424,18.9113328 C80.5573055,19.4627244 80.4810343,19.8757809 79.7670065,19.882925 C79.0812152,19.890069 78.9413306,19.5487778 78.9484709,18.9597176 C78.9676198,17.3409386 78.9384096,15.7215101 78.9611287,14.1027312 C78.9747601,13.1213971 79.5807101,12.741463 80.2794837,13.3623468 C80.7104969,13.7452034 80.864662,13.6058943 81.2427722,13.4263186 C83.1618844,12.5157757 84.7661752,13.5165935 84.8658146,15.6646824 C84.8908055,16.2030847 84.8693847,16.7437602 84.8706829,17.2834614" id="Fill-21"></path>
            <path d="M58.172045,17.1380798 C58.172045,17.7674065 58.1564662,18.3970579 58.1769134,19.0257352 C58.1944395,19.5722558 58.0143098,19.864188 57.4122545,19.8622397 C56.8364884,19.8602913 56.5930698,19.6021309 56.594368,19.0513889 C56.5963154,18.0625861 56.5794383,17.0734585 56.5969645,16.0849804 C56.6144906,15.1283259 56.2334594,14.4743197 55.2244082,14.4817885 C54.2335322,14.4889325 53.8239399,15.127027 53.838545,16.0856299 C53.8528256,17.0292952 53.8307556,17.97361 53.844387,18.9172754 C53.8528256,19.4884754 53.721055,19.865487 53.0300707,19.8622397 C52.3179902,19.8589924 52.2485348,19.4436627 52.252754,18.8906475 C52.2647627,17.2728427 52.2592452,15.6547132 52.2553505,14.0365837 C52.2547014,13.6667162 52.246912,13.2634016 52.6886356,13.166632 C53.020334,13.0942172 53.4993818,12.9760155 53.6704239,13.3575733 C53.9122197,13.8956508 54.0524288,13.7543933 54.472407,13.515392 C56.3872999,12.4259229 58.1120018,13.4462245 58.1700977,15.6550379 C58.18308,16.1489522 58.172045,16.6438407 58.172045,17.1380798" id="Fill-23"></path>
            <path d="M52.249833,3.1461465 C52.2534031,3.69656383 51.7905833,3.83847083 51.4426569,4.09922901 C50.105802,5.10134576 48.581028,5.83685918 47.3490054,6.98770226 C46.8413965,4.88442613 47.1607617,2.74965118 47.1649809,0.632736383 C47.1666037,-0.293068815 47.8624563,0.0933598718 48.301908,0.392760921 C49.6274034,1.29648448 50.935048,2.22651117 52.249833,3.1461465" id="Fill-25"></path>
            <path d="M90.9351163,19.9013047 C89.6836202,19.9159175 89.0276883,19.3252337 88.9708906,18.1373714 C88.9306454,17.2882025 88.9718643,16.4354615 88.953689,15.5849937 C88.9429786,15.092703 89.1581606,14.5013697 88.3649406,14.3289381 C88.0760838,14.2662652 88.0043565,13.7210435 88.127364,13.6609685 C89.1169417,13.1764713 88.8206202,11.8645622 89.6998481,11.3209642 C90.2467286,10.9829203 90.5596026,11.0429953 90.5290941,11.7226552 C90.4904717,12.5870864 90.4596387,13.3498771 91.7173014,13.1410758 C92.103201,13.077104 92.2073842,13.4453478 92.2047877,13.790211 C92.2015421,14.2311943 91.9620182,14.5026686 91.5417155,14.4354495 C90.5125417,14.2708114 90.4917699,14.8751339 90.5329888,15.6155183 C90.5699884,16.2854362 90.5433747,16.9586015 90.5417519,17.6304679 C90.5407782,18.065606 90.6196458,18.4783379 91.1467282,18.5039915 C91.7088629,18.5312689 92.3050762,18.4932754 92.1772003,19.3096466 C92.0528945,20.1016631 91.3349719,19.75063 90.9351163,19.9013047" id="Fill-27"></path>
            <path d="M100.30988,16.5156698 C100.310205,15.6622794 100.274179,14.8069406 100.320915,13.956148 C100.36538,13.1465962 101.213126,12.7263956 101.681138,13.3323417 C102.101766,13.8765892 102.250413,13.6496029 102.595743,13.4057307 C103.061159,13.0764545 103.601873,12.9852054 104.125061,13.2095938 C104.417488,13.3352643 104.303243,13.6752566 104.280849,13.9389373 C104.219507,14.6686056 103.7106,14.6653583 103.141001,14.7465408 C102.219256,14.8780565 101.975837,15.6538364 101.91125,16.4422808 C101.849259,17.2008501 101.892426,17.968187 101.883014,18.7316273 C101.876522,19.2609371 101.999205,19.8464253 101.142696,19.8626618 C100.218679,19.880522 100.310529,19.2596382 100.309556,18.6715522 C100.308582,17.9529247 100.309556,17.2342973 100.30988,16.5156698" id="Fill-29"></path>
            <path d="M42.2576946,16.4845282 C42.2576946,15.6330862 42.2722997,14.7816441 42.2525016,13.9308516 C42.2395193,13.3667956 42.4660609,13.117403 43.0437743,13.1225986 C43.6234351,13.1277943 43.8408891,13.4051137 43.8389417,13.9500106 C43.8330997,15.65257 43.8330997,17.3551293 43.8392663,19.0576886 C43.8412136,19.6149253 43.5974705,19.8610706 43.0268973,19.8626943 C42.4362015,19.8646427 42.2398439,19.5905705 42.2525016,19.0382048 C42.2719751,18.1874123 42.2576946,17.3359702 42.2576946,16.4845282" id="Fill-31"></path>
            <path d="M85.9270872,16.4400402 C85.9270872,15.6363335 85.9293591,14.8326268 85.9261135,14.0292448 C85.9241661,13.5538401 85.9488325,13.1427319 86.6063873,13.1264954 C87.2100654,13.1118825 87.3875987,13.4028406 87.3853268,13.9383204 C87.3788356,15.6350346 87.3798093,17.331424 87.3850022,19.0281382 C87.386625,19.5457578 87.2499861,19.8669158 86.6297555,19.8597717 C85.9829112,19.8519782 85.9212451,19.4756161 85.9251398,18.9849491 C85.9322801,18.1367544 85.9270872,17.2882349 85.9270872,16.4400402" id="Fill-33"></path>
            <path d="M87.5514032,11.5412935 C87.5118071,12.1904287 87.1018902,12.3427271 86.5384573,12.3209702 C86.0000154,12.3001875 85.7027201,12.0598873 85.7124569,11.4990786 C85.724141,10.8304595 86.1661891,10.6846558 86.7107976,10.7064127 C87.2284679,10.7271954 87.5471839,10.9834074 87.5514032,11.5412935" id="Fill-35"></path>
            <path d="M43.8803554,11.5277522 C43.8913903,12.1668209 43.5223677,12.3106762 43.0111887,12.3155472 C42.4759924,12.3210676 42.1650657,12.1119415 42.1588991,11.540092 C42.1520834,10.8864105 42.5340883,10.6860521 43.107907,10.7169015 C43.6369368,10.7454777 43.9384513,10.9961692 43.8803554,11.5277522" id="Fill-37"></path>
        </g>
    </g>
</svg>