<?xml version="1.0" encoding="UTF-8"?>
<svg width="95px" height="23px" viewBox="0 0 95 23" version="1.1" xmlns="http://www.w3.org/2000/svg" xmlns:xlink="http://www.w3.org/1999/xlink">
    <!-- Generator: Sketch 49.1 (51147) - http://www.bohemiancoding.com/sketch -->
    <title>company-logo_hummel-grey</title>
    <desc>Created with Sketch.</desc>
    <defs></defs>
    <g id="Customer-Logos" stroke="none" stroke-width="1" fill="none" fill-rule="evenodd">
        <g id="Customer-Logo---Grey-Small" transform="translate(-2068.000000, -663.000000)" fill="#8091A6" fill-rule="nonzero">
            <g id="company-logo_hummel-grey" transform="translate(2068.000000, 663.000000)">
                <path d="M86.5446058,0.974576271 C87.3921162,0.974576271 88.0622407,1.63728814 88.0622407,2.47542373 C88.0622407,3.31355932 87.3921162,3.97627119 86.5446058,3.97627119 C85.6970954,3.97627119 85.0072614,3.31355932 85.0072614,2.47542373 C85.026971,1.63728814 85.6970954,0.974576271 86.5446058,0.974576271 Z M86.5446058,1.11101695 C85.7956432,1.11101695 85.1649378,1.71525424 85.1649378,2.47542373 C85.1649378,3.23559322 85.7759336,3.83983051 86.5446058,3.83983051 C87.313278,3.83983051 87.9242739,3.23559322 87.9242739,2.47542373 C87.9242739,1.71525424 87.313278,1.11101695 86.5446058,1.11101695 Z M85.9927386,1.53983051 L85.9927386,3.3720339 L86.189834,3.3720339 L86.189834,2.57288136 L86.5643154,2.57288136 L87.1950207,3.3720339 L87.4118257,3.3720339 L86.7614108,2.55338983 C86.9387967,2.53389831 87.2541494,2.41694915 87.2541494,2.04661017 C87.2541494,1.89067797 87.1950207,1.77372881 87.0767635,1.67627119 C86.9585062,1.57881356 86.7614108,1.53983051 86.4460581,1.53983051 L85.9927386,1.53983051 Z M86.1701245,2.43644068 L86.5446058,2.43644068 C86.8599585,2.43644068 87.0373444,2.28050847 87.0373444,2.04661017 C87.0373444,1.73474576 86.7614108,1.65677966 86.4263485,1.65677966 L86.1701245,1.65677966 L86.1701245,2.43644068 Z M87.0373444,2.04661017 C87.0373444,1.73474576 86.7614108,1.65677966 86.4263485,1.65677966 L86.1701245,1.65677966 L86.1701245,2.43644068 L86.5446058,2.43644068 C86.8599585,2.43644068 87.0373444,2.28050847 87.0373444,2.04661017 Z M87.0373444,2.04661017 C87.0373444,1.73474576 86.7614108,1.65677966 86.4263485,1.65677966 L86.1701245,1.65677966 L86.1701245,2.43644068 L86.5446058,2.43644068 C86.8599585,2.43644068 87.0373444,2.28050847 87.0373444,2.04661017 Z" id="Shape"></path>
                <path d="M0.177385892,2.3 C0.177385892,-0.526271186 5.04564315,-0.526271186 5.02593361,2.28050847 L5.04564315,6.60762712 L7.86410788,6.60762712 L12.219917,6.64661017 C12.5155602,6.72457627 12.870332,6.64661017 13.1462656,6.68559322 C14.8609959,6.91949153 16.3195021,8.22542373 16.8122407,9.88220339 C16.9107884,10.2135593 16.9896266,10.5644068 17.0093361,10.9152542 L17.0093361,20.7194915 C16.9304979,21.4601695 16.4574689,22.1423729 15.7873444,22.5127119 C14.9201245,23 13.8755187,22.8635593 13.0674274,22.3177966 C12.5352697,21.85 12.1607884,21.2847458 12.1016598,20.5830508 L12.1016598,12.4355932 C12.1213693,12.1822034 12.1016598,11.909322 11.9242739,11.7338983 C11.6680498,11.4805085 11.313278,11.4610169 10.9782158,11.4220339 L5.08506224,11.4220339 L5.0653527,11.4610169 C5.04564315,12.1627119 5.08506224,12.8644068 5.02593361,13.5271186 L5.02593361,20.6610169 C4.94709544,21.5186441 4.25726141,22.3762712 3.42946058,22.629661 C2.58195021,22.9415254 1.61618257,22.7466102 0.946058091,22.2008475 C0.453319502,21.85 0.27593361,21.3432203 0.197095436,20.7779661 L0.177385892,2.3 Z" id="Shape"></path>
                <path d="M19.8278008,6.86101695 C20.7738589,6.45169492 21.8578838,6.62711864 22.6068465,7.34830508 C23.0798755,7.83559322 23.2572614,8.45932203 23.2966805,9.08305085 L23.276971,14.2288136 L23.276971,17.4059322 C23.2966805,17.7567797 23.4937759,18.0686441 23.8288382,18.2245763 L24.18361,18.2635593 L29.5248963,18.2440678 C29.840249,18.1466102 30.1358921,17.8542373 30.1950207,17.5033898 L30.2344398,16.5677966 L30.2344398,9.0440678 C30.2738589,8.14745763 30.8651452,7.28983051 31.653527,6.9 C31.870332,6.86101695 32.0280083,6.72457627 32.2645228,6.72457627 L32.3039419,6.68559322 C33.2697095,6.58813559 34.1369295,6.9 34.7282158,7.67966102 C35.0041494,8.06949153 35.1421162,8.51779661 35.1421162,9.00508475 L35.1618257,19.1016949 C35.1421162,21.2652542 32.8755187,22.5322034 30.9636929,22.5127119 L22.409751,22.5322034 C20.5176349,22.5127119 18.4284232,21.2847458 18.4284232,19.1211864 L18.4284232,8.86864407 C18.5072614,8.05 19.0591286,7.21186441 19.8278008,6.86101695 Z" id="Shape"></path>
                <path d="M36.403527,10.6423729 C36.5809129,9.0440678 37.7043568,7.48474576 39.2614108,6.93898305 C39.6556017,6.80254237 40.030083,6.70508475 40.4636929,6.66610169 L49.7271784,6.72457627 C51.4616183,6.86101695 53.0778008,8.30338983 53.5311203,9.92118644 C53.6493776,10.3305085 53.7282158,10.7983051 53.7085062,11.1881356 L53.7085062,20.4661017 C53.629668,21.3237288 52.9989627,22.2398305 52.1711618,22.4737288 C51.3039419,22.7855932 50.3578838,22.6491525 49.6680498,22.0449153 C49.1358921,21.5576271 48.8599585,20.9338983 48.840249,20.2127119 L48.8205394,11.8118644 C48.8008299,11.5584746 48.6628631,11.3050847 48.4263485,11.1686441 C48.2686722,11.090678 48.0715768,11.090678 47.9139004,11.1686441 C47.3029046,11.6169492 47.5985477,12.3966102 47.5197095,13.0398305 L47.5197095,20.5440678 C47.4014523,21.3042373 46.9087137,22.1033898 46.159751,22.4152542 C45.1742739,22.8245763 44.090249,22.6491525 43.3018672,21.9084746 C42.8091286,21.440678 42.6317427,20.8364407 42.5923237,20.1932203 L42.5923237,11.8508475 C42.533195,11.7923729 42.5923237,11.6949153 42.5529046,11.6169492 C42.4346473,11.3635593 42.2572614,11.1686441 41.9813278,11.129661 C41.7645228,11.1101695 41.5674274,11.2661017 41.4294606,11.4415254 C41.2914938,11.5779661 41.3112033,11.7728814 41.2914938,11.9872881 L41.3112033,19.3161017 C41.409751,20.2127119 41.2520747,21.3822034 40.4636929,22.0644068 C39.9906639,22.4347458 39.4585062,22.6686441 38.7883817,22.629661 C38.6504149,22.6881356 38.473029,22.629661 38.3350622,22.590678 C37.3692946,22.4152542 36.620332,21.5576271 36.4429461,20.6220339 C36.3641079,20.4855932 36.4429461,20.2711864 36.3641079,20.1152542 L36.403527,10.6423729 Z" id="Shape"></path>
                <path d="M73.4574689,10.6033898 C73.6742739,8.98559322 74.7780083,7.40677966 76.4139004,6.86101695 C76.7489627,6.70508475 77.1825726,6.70508475 77.5373444,6.64661017 L84.3371369,6.64661017 C84.4751037,6.68559322 84.6327801,6.68559322 84.7707469,6.72457627 C86.2883817,6.93898305 87.7665975,8.22542373 88.2396266,9.68728814 C88.5943983,10.5838983 88.4564315,11.6169492 88.4564315,12.6110169 C88.3775934,14.1118644 87.2738589,15.5152542 85.93361,16.0805085 C85.4014523,16.2754237 84.810166,16.470339 84.2582988,16.4313559 L78.7002075,16.4313559 C78.503112,16.509322 78.3060166,16.4898305 78.1286307,16.6262712 C77.9906639,16.7432203 77.9315353,16.9186441 77.9118257,17.0745763 C77.9512448,17.3474576 78.1680498,17.5618644 78.4045643,17.659322 L79.4688797,17.6788136 L86.0518672,17.7177966 C86.9782158,17.7762712 87.9045643,18.3025424 88.2790456,19.2186441 C88.6338174,19.9788136 88.4958506,20.9144068 87.9439834,21.5576271 C87.4512448,22.0838983 86.8008299,22.4152542 86.0912863,22.4152542 L77.6950207,22.3957627 C76.1182573,22.4152542 74.620332,21.3627119 73.8910788,19.959322 C73.5560166,19.3161017 73.3983402,18.5754237 73.3786307,17.8152542 L73.4574689,10.6033898 Z M78.5622407,10.8957627 C78.2271784,10.8957627 77.9512448,11.1686441 77.9512448,11.5 C77.9512448,11.8313559 78.2271784,12.1042373 78.5622407,12.1042373 L83.1151452,12.1042373 C83.4502075,12.1042373 83.7064315,11.8313559 83.7064315,11.5 C83.7064315,11.1686441 83.4304979,10.8957627 83.1151452,10.8957627 L78.5622407,10.8957627 Z" id="Shape"></path>
                <path d="M94.8226141,2.28050847 L94.8226141,20.6805085 C94.8226141,23.3118644 89.81639,23.2338983 89.81639,20.6805085 L89.7966805,2.28050847 C89.81639,0.877118644 91.0580913,0.175423729 92.2997925,0.175423729 L92.3195021,0.175423729 C93.5809129,0.175423729 94.8226141,0.877118644 94.8226141,2.28050847 Z" id="Shape"></path>
                <path d="M55.0290456,10.720339 C55.2064315,9.1220339 56.3298755,7.56271186 57.8869295,6.99745763 C58.2811203,6.86101695 58.6556017,6.76355932 59.0892116,6.72457627 L68.3526971,6.78305085 C70.0871369,6.91949153 71.7033195,8.36186441 72.156639,9.97966102 C72.2748963,10.3889831 72.3537344,10.8567797 72.3340249,11.2466102 L72.3340249,20.5245763 C72.2551867,21.3822034 71.6244813,22.2983051 70.7966805,22.5322034 C69.9294606,22.8440678 68.9834025,22.7076271 68.2935685,22.1033898 C67.7811203,21.6161017 67.4854772,20.9923729 67.4657676,20.2711864 L67.4460581,11.870339 C67.4263485,11.6169492 67.2883817,11.3635593 67.0518672,11.2271186 C66.8941909,11.1491525 66.6970954,11.1491525 66.5394191,11.2271186 C65.9284232,11.6754237 66.2240664,12.4550847 66.1452282,13.0983051 L66.1452282,20.6025424 C66.026971,21.3627119 65.5342324,22.1618644 64.7852697,22.4737288 C63.7997925,22.8830508 62.7157676,22.7076271 61.9273859,21.9669492 C61.4543568,21.4991525 61.2572614,20.8949153 61.2178423,20.2516949 L61.2178423,11.909322 C61.1390041,11.8508475 61.2178423,11.7533898 61.1587137,11.6754237 C61.0404564,11.4220339 60.8630705,11.2271186 60.5871369,11.1881356 C60.370332,11.1686441 60.1732365,11.3245763 60.0549793,11.5 C59.9170124,11.6364407 59.936722,11.8508475 59.9170124,12.0457627 L59.936722,19.3745763 C60.0352697,20.2711864 59.8775934,21.440678 59.0892116,22.1228814 C58.6161826,22.4932203 58.0643154,22.7271186 57.4139004,22.6881356 C57.2759336,22.7466102 57.0985477,22.6881356 56.9605809,22.6491525 C55.9948133,22.4737288 55.2458506,21.6161017 55.0684647,20.6805085 C54.9896266,20.5440678 55.0684647,20.329661 54.9896266,20.1737288 L55.0290456,10.720339 Z" id="Shape"></path>
            </g>
        </g>
    </g>
</svg>