<?xml version="1.0" encoding="UTF-8"?>
<svg width="65px" height="23px" viewBox="0 0 65 23" version="1.1" xmlns="http://www.w3.org/2000/svg" xmlns:xlink="http://www.w3.org/1999/xlink">
    <!-- Generator: Sketch 49.1 (51147) - http://www.bohemiancoding.com/sketch -->
    <title>company-logo_matas-grey</title>
    <desc>Created with Sketch.</desc>
    <defs></defs>
    <g id="Customer-Logos" stroke="none" stroke-width="1" fill="none" fill-rule="evenodd">
        <g id="Customer-Logo---Grey-Small" transform="translate(-2052.000000, -830.000000)" fill="#8091A6" fill-rule="nonzero">
            <path d="M2059.8007,849.49272 C2059.8007,850.303448 2060.09871,850.479693 2060.99272,850.673563 C2061.5712,850.814559 2061.67638,850.920307 2061.67638,851.061303 C2061.67638,851.237548 2061.51861,851.343295 2061.32578,851.343295 C2060.7473,851.343295 2059.52023,851.237548 2058.62621,851.237548 C2057.78479,851.237548 2056.32983,851.343295 2055.6637,851.343295 C2055.17287,851.343295 2055.05016,851.290421 2055.05016,851.096552 C2055.05016,850.867433 2055.15534,850.77931 2055.62864,850.673563 C2056.54018,850.479693 2056.7856,850.391571 2056.7856,849.598467 L2056.7856,841.03295 C2056.7856,840.468966 2056.52265,840.239847 2055.90912,840.222222 C2055.40076,840.186973 2055.26052,840.222222 2055.26052,839.993103 C2055.26052,839.74636 2055.3657,839.763985 2056.90831,839.182375 C2058.87163,838.424521 2059.3274,837.860536 2059.67799,837.860536 C2059.83576,837.860536 2059.94094,837.91341 2059.94094,838.477395 L2059.94094,839.728736 C2059.94094,839.869732 2059.976,839.904981 2060.04612,839.904981 C2060.23894,839.94023 2061.53614,838.036782 2064.00782,838.036782 C2066.51456,838.036782 2066.68986,839.993103 2067.16316,839.993103 C2067.65399,839.993103 2068.67071,838.036782 2071.07228,838.036782 C2072.87783,838.036782 2074.52562,839.147126 2074.52562,841.279693 L2074.52562,849.563218 C2074.52562,850.162452 2074.68339,850.444444 2075.55987,850.673563 C2076.17341,850.849808 2076.43635,850.867433 2076.43635,851.096552 C2076.43635,851.32567 2076.24353,851.378544 2076.01564,851.378544 C2075.36704,851.378544 2074.13997,851.272797 2073.2109,851.272797 C2072.43959,851.272797 2070.82686,851.378544 2070.33603,851.378544 C2069.98544,851.378544 2069.82767,851.272797 2069.82767,851.131801 C2069.82767,850.849808 2070.21332,850.761686 2070.44121,850.708812 C2071.4404,850.462069 2071.51052,850.338697 2071.51052,849.298851 L2071.51052,841.57931 C2071.51052,840.327969 2071.19498,839.464368 2069.89779,839.464368 C2068.44283,839.464368 2067.19822,840.627586 2067.19822,841.77318 L2067.19822,849.122605 C2067.19822,850.285824 2067.35599,850.585441 2068.32012,850.726437 C2068.93366,850.832184 2069.23166,850.920307 2069.23166,851.149425 C2069.23166,851.290421 2069.12648,851.378544 2068.84601,851.378544 C2068.10976,851.378544 2066.88269,851.272797 2065.8835,851.272797 C2065.26996,851.272797 2063.58711,851.378544 2062.95604,851.378544 C2062.60545,851.378544 2062.53533,851.272797 2062.53533,851.096552 C2062.53533,850.902682 2062.6931,850.814559 2063.27157,850.708812 C2063.72735,850.62069 2064.16559,850.462069 2064.16559,849.809962 L2064.16559,841.843678 C2064.16559,840.398467 2063.62217,839.464368 2062.62298,839.464368 C2061.01025,839.464368 2059.85329,840.539464 2059.85329,841.896552 L2059.8007,849.49272 Z M2085.32389,848.382375 C2085.32389,849.175479 2085.53425,849.616092 2085.81472,849.616092 C2086.28803,849.616092 2086.48085,848.734866 2086.81392,848.734866 C2086.95415,848.734866 2087.07686,848.875862 2087.07686,849.069732 C2087.07686,849.968582 2086.18285,851.695785 2084.35976,851.695785 C2083.46575,851.695785 2083.06257,851.237548 2082.69444,850.479693 C2082.44903,849.968582 2082.44903,849.49272 2082.22114,849.49272 C2081.94067,849.49272 2081.81796,849.721839 2080.99407,850.567816 C2080.27535,851.308046 2079.59169,851.695785 2078.85545,851.695785 C2077.45307,851.695785 2076.47141,850.514943 2076.47141,848.858238 C2076.47141,847.025287 2077.62837,845.844444 2080.5383,844.222989 C2082.09844,843.341762 2082.23867,843.288889 2082.23867,842.531034 L2082.23867,840.451341 C2082.23867,839.411494 2081.99326,838.988506 2081.34466,838.988506 C2080.48571,838.988506 2079.90723,839.887356 2079.64428,841.614559 C2079.43393,842.971648 2077.87379,843.588506 2077.3479,843.588506 C2076.8746,843.588506 2076.55906,843.306513 2076.55906,842.442912 C2076.55906,840.451341 2079.10086,838.10728 2082.11597,838.10728 C2084.13188,838.10728 2085.30636,838.812261 2085.30636,840.891954 L2085.32389,848.382375 Z M2080.67853,849.3341 C2081.41478,849.3341 2081.97573,848.435249 2081.97573,846.778544 L2081.97573,844.504981 C2081.97573,844.363985 2081.92314,844.275862 2081.85302,844.275862 C2081.7829,844.275862 2081.71278,844.328736 2081.60761,844.381609 C2080.64347,845.121839 2079.45146,846.073563 2079.45146,847.624521 C2079.46899,848.646743 2079.87217,849.3341 2080.67853,849.3341 Z M2103.13403,848.382375 C2103.13403,849.175479 2103.34439,849.616092 2103.62487,849.616092 C2104.09817,849.616092 2104.29099,848.734866 2104.62406,848.734866 C2104.76429,848.734866 2104.887,848.875862 2104.887,849.069732 C2104.887,849.968582 2103.99299,851.695785 2102.1699,851.695785 C2101.27589,851.695785 2100.87271,851.237548 2100.50458,850.479693 C2100.25917,849.968582 2100.25917,849.49272 2100.03128,849.49272 C2099.75081,849.49272 2099.6281,849.721839 2098.80421,850.567816 C2098.08549,851.308046 2097.40183,851.695785 2096.66559,851.695785 C2095.26321,851.695785 2094.28155,850.514943 2094.28155,848.858238 C2094.28155,847.025287 2095.43851,845.844444 2098.34844,844.222989 C2099.90858,843.341762 2100.04881,843.288889 2100.04881,842.531034 L2100.04881,840.451341 C2100.04881,839.411494 2099.8034,838.988506 2099.1548,838.988506 C2098.29585,838.988506 2097.71737,839.887356 2097.45442,841.614559 C2097.24407,842.971648 2095.68393,843.588506 2095.15804,843.588506 C2094.68474,843.588506 2094.3692,843.306513 2094.3692,842.442912 C2094.3692,840.451341 2096.911,838.10728 2099.92611,838.10728 C2101.94202,838.10728 2103.1165,838.812261 2103.1165,840.891954 L2103.13403,848.382375 Z M2098.75162,849.3341 C2099.48786,849.3341 2100.04881,848.435249 2100.04881,846.778544 L2100.04881,844.504981 C2100.04881,844.363985 2099.99622,844.275862 2099.92611,844.275862 C2099.85599,844.275862 2099.78587,844.328736 2099.68069,844.381609 C2098.71656,845.121839 2097.52454,846.073563 2097.52454,847.624521 C2097.5596,848.646743 2097.96278,849.3341 2098.75162,849.3341 Z M2109.51483,850.62069 C2110.47896,850.62069 2111.21521,850.109579 2111.21521,848.629119 C2111.21521,846.003065 2105.67584,846.91954 2105.67584,842.372414 C2105.67584,839.693487 2107.9021,838.072031 2109.81284,838.072031 C2111.37298,838.072031 2112.96818,838.583142 2113.00324,838.918008 C2113.05583,839.2 2113.05583,839.534866 2113.05583,841.03295 C2113.05583,841.561686 2112.863,841.685057 2112.58252,841.685057 C2111.49569,841.685057 2111.25027,838.988506 2109.4973,838.988506 C2108.67341,838.988506 2108.16505,839.728736 2108.16505,840.557088 C2108.16505,843.183142 2113.70442,842.390038 2113.70442,846.813793 C2113.70442,850.021456 2111.00485,851.71341 2108.56823,851.71341 C2107.07821,851.71341 2106.25431,851.202299 2105.78101,850.867433 C2105.65831,850.77931 2105.58819,850.62069 2105.58819,847.800766 C2105.58819,847.289655 2105.72843,847.060536 2106.04396,847.060536 C2107.27104,847.042912 2107.07821,850.62069 2109.51483,850.62069 Z M2091.21386,837.56092 L2091.21386,846.796169 C2091.21386,848.470498 2091.61704,849.034483 2092.17799,849.034483 C2092.93177,849.034483 2092.89671,847.871264 2093.2473,847.871264 C2093.44013,847.871264 2093.49272,848.118008 2093.49272,848.452874 C2093.49272,849.475096 2092.26564,851.71341 2090.65291,851.71341 C2088.84736,851.71341 2088.14617,849.933333 2088.14617,846.531801 L2088.14617,837.56092 C2088.14617,837.278927 2088.05852,837.120307 2087.93581,837.014559 L2055.97923,837.014559 L2055.97923,835.410728 L2087.39239,835.410728 C2087.62028,835.252107 2087.8657,835.093487 2088.09358,834.881992 C2090.10949,832.96092 2090.37244,830.898851 2090.77562,830.898851 C2091.02104,830.898851 2091.16127,830.898851 2091.16127,831.268966 L2091.23139,835.005364 C2091.23139,835.163985 2091.24892,835.304981 2091.28398,835.393103 L2112.54746,835.393103 L2112.54746,836.996935 L2093.28236,836.996935 C2093.2473,837.032184 2093.19471,837.049808 2093.1246,837.049808 L2091.63457,837.049808 C2091.45928,837.067433 2091.21386,837.243678 2091.21386,837.56092 Z M2117,830 L2052,830 L2052,853 L2117,853 L2117,830 Z" id="company-logo_matas-grey"></path>
        </g>
    </g>
</svg>