<?xml version="1.0" encoding="UTF-8"?>
<svg width="80px" height="23px" viewBox="0 0 80 23" version="1.1" xmlns="http://www.w3.org/2000/svg" xmlns:xlink="http://www.w3.org/1999/xlink">
    <!-- Generator: Sketch 48.2 (47327) - http://www.bohemiancoding.com/sketch -->
    <title>coop-grey</title>
    <desc>Created with Sketch.</desc>
    <defs></defs>
    <g id="Customer-Logo---Grey-Small" stroke="none" stroke-width="1" fill="none" fill-rule="evenodd" transform="translate(-1528.000000, -814.000000)">
        <g id="coop-grey" transform="translate(1528.000000, 814.000000)" fill="#8091A6" fill-rule="nonzero">
            <path d="M68.6410089,4.89295896e-15 C63.5616438,4.89295896e-15 59.4216134,2.1002994 57.925636,5.87050898 C56.4296586,2.11751497 52.2896282,4.89295896e-15 47.2102631,4.89295896e-15 C42.6875408,4.89295896e-15 38.9302022,1.66991018 37.0863231,4.66541916 C35.242444,1.65269461 31.4851055,4.89295896e-15 26.9623831,4.89295896e-15 C20.5262013,4.89295896e-15 15.6381822,3.35703593 15.6381822,9.1758982 C15.6381822,10.6392216 15.9512938,11.9476048 16.5253316,13.0838323 C16.4557513,13.1182635 16.3861709,13.1526946 16.2991955,13.1871257 C16.003479,13.3076347 15.6903675,13.4109281 15.3424658,13.5142216 C14.4553164,13.7552395 13.4464014,13.8929641 12.4548815,13.8929641 C9.53250707,13.8929641 6.92324418,12.0853293 6.92324418,9.27919162 C6.92324418,6.2492515 9.16721026,4.44161677 12.0895847,4.44161677 C13.2028702,4.44161677 14.0552294,4.51047904 14.9423788,4.82035928 C14.9423788,4.82035928 15.9512938,2.6511976 17.6386171,1.39446108 C17.3081105,1.23952096 16.9776038,1.10179641 16.612307,0.946856287 C15.0989346,0.292664671 13.3072407,0 11.3242009,0 C4.88801913,0 0,3.35703593 0,9.1758982 C0,14.9603293 4.90541422,18.3173653 11.3242009,18.3173653 C13.0289193,18.3173653 14.9075886,18.0763473 16.5427267,17.6287425 C17.1515547,17.491018 18.5779517,16.9917665 19.6216569,16.4064371 C21.5873016,17.6631737 24.1443792,18.3345808 26.9971733,18.3345808 C31.5198956,18.3345808 35.2772342,16.6646707 37.1211133,13.6691617 C38.9649924,16.6646707 42.7223309,18.3345808 47.2450533,18.3345808 C51.7503805,18.3345808 55.5077191,16.6818862 57.3515982,13.6863772 L57.3515982,23 L64.2748424,23 L64.2748424,17.7320359 C65.614264,18.127994 67.1102414,18.3345808 68.6757991,18.3345808 C75.1119809,18.3345808 80,14.9775449 80,9.19311377 C79.9826049,3.3742515 75.0771907,4.89295896e-15 68.6410089,4.89295896e-15 Z M26.9797782,14.0995509 C23.8834529,14.0995509 22.6136117,11.7754491 22.6136117,9.19311377 C22.6136117,6.57634731 23.8834529,4.25224551 26.9797782,4.25224551 C30.0761035,4.25224551 31.3459448,6.57634731 31.3459448,9.19311377 C31.3459448,11.7754491 30.0761035,14.0995509 26.9797782,14.0995509 Z M47.2102631,14.0995509 C44.1139378,14.0995509 42.8267015,11.7754491 42.8267015,9.19311377 C42.8267015,6.57634731 44.0965427,4.25224551 47.2102631,4.25224551 C50.3065884,4.25224551 51.5764297,6.57634731 51.5764297,9.19311377 C51.5938247,11.7754491 50.3239835,14.0995509 47.2102631,14.0995509 Z M68.6410089,14.0995509 C65.5446836,14.0995509 64.2748424,11.7754491 64.2748424,9.19311377 C64.2748424,6.57634731 65.5446836,4.25224551 68.6410089,4.25224551 C71.7373342,4.25224551 73.0071755,6.57634731 73.0071755,9.19311377 C73.0245706,11.7754491 71.7547293,14.0995509 68.6410089,14.0995509 Z" id="COOP"></path>
        </g>
    </g>
</svg>