<?xml version="1.0" encoding="UTF-8"?>
<svg width="110px" height="23px" viewBox="0 0 110 23" version="1.1" xmlns="http://www.w3.org/2000/svg" xmlns:xlink="http://www.w3.org/1999/xlink">
    <!-- Generator: Sketch 48.2 (47327) - http://www.bohemiancoding.com/sketch -->
    <title>nordea-grey</title>
    <desc>Created with Sketch.</desc>
    <defs></defs>
    <g id="Customer-Logo---Grey-Small" stroke="none" stroke-width="1" fill="none" fill-rule="evenodd" transform="translate(-1135.000000, -1008.000000)">
        <g id="nordea-grey" transform="translate(1135.000000, 1008.000000)" fill="#8091A6" fill-rule="nonzero">
            <g id="_x34_4-nordea">
                <path d="M100.288703,4.87326733 C95.8472803,5.19207921 92.2803347,8.79009901 91.958159,13.1851485 C91.6359833,18.3772277 95.7552301,22.7039604 100.933054,22.7039604 C102.797071,22.7039604 105.305439,21.7475248 106.433054,19.8346535 L106.433054,22.4762376 L109.90795,22.4762376 L109.90795,14.0049505 C110.046025,8.38019802 105.535565,4.46336634 100.288703,4.87326733 Z M106.179916,13.9821782 C106.018828,16.9425743 103.441423,19.1742574 100.357741,18.7871287 C98.0104603,18.4683168 96.1464435,16.6237624 95.8242678,14.3009901 C95.5020921,11.1811881 97.91841,8.53960396 101.002092,8.53960396 C103.740586,8.53960396 106.018828,10.7029703 106.179916,13.4128713 L106.179916,13.9821782 Z" id="Shape"></path>
                <path d="M81.2112971,4.87326733 C76.4476987,5.03267327 72.3974895,8.63069307 72.3974895,13.9138614 C72.3974895,18.7188119 76.3556485,22.7950495 81.4414226,22.7950495 C84.9853556,22.7950495 88.460251,20.7227723 89.8410042,17.2841584 L86.3661088,16.2366337 C85.7217573,17.6712871 84.1799163,18.8782178 82.4769874,19.1970297 C80.0606695,19.6752475 77.7824268,18.149505 76.9079498,16.5554455 L90.3933054,12.8891089 C90.0251046,9.33663366 86.9414226,4.71386139 81.2112971,4.87326733 Z M76.1945607,13.3445545 C76.1945607,11.5 77.3221757,9.33663366 79.7384937,8.47128713 C82.4769874,7.42376238 84.916318,8.79009901 85.9518828,10.7029703 L76.1945607,13.3445545 Z" id="Shape"></path>
                <path d="M51.5711297,8.47128713 L51.5711297,4.78217822 C48.1882845,4.78217822 47.0376569,6.46732673 46.4853556,7.33267327 L46.4853556,5.32871287 L42.5962343,5.32871287 L42.5962343,13.4811881 L42.5962343,22.3623762 L46.5543933,22.3623762 C46.5543933,17.0792079 46.5543933,17.170297 46.5543933,13.9594059 C46.5543933,10.1564356 48.8096234,8.63069307 51.5711297,8.47128713 Z" id="Shape"></path>
                <polygon id="Shape" points="15.9246862 15.5762376 4.14225941 1.82178218 0.0920502092 1.82178218 0.0920502092 22.3851485 4.30334728 22.3851485 4.30334728 8.63069307 16.2468619 22.4534653 19.8828452 22.4534653 19.8828452 1.82178218 15.9246862 1.82178218"></polygon>
                <path d="M70.0732218,0 L66.3682008,0 L66.3682008,6.71782178 C65.4707113,5.6019802 62.7322176,4.64554455 60.3849372,4.87326733 C55.9435146,5.19207921 52.376569,8.79009901 52.0543933,13.1851485 C51.7322176,18.3772277 55.8514644,22.7039604 61.0292887,22.7039604 C62.9623431,22.7039604 65.6317992,21.8158416 66.5292887,20.1534653 L66.5292887,22.3851485 L70.0041841,22.3851485 L70.0041841,13.9138614 C70.0041841,13.8227723 70.0041841,13.8227723 70.0041841,13.7544554 C70.0041841,13.6633663 70.0041841,13.6633663 70.0041841,13.5950495 L70.0732218,0 Z M66.1841004,13.9821782 C66.0230126,16.9425743 63.4456067,19.1742574 60.3619247,18.7871287 C58.0146444,18.4683168 56.1506276,16.6237624 55.8284519,14.3009901 C55.5062762,11.1811881 57.9225941,8.53960396 61.0062762,8.53960396 C63.7447699,8.53960396 66.0230126,10.7029703 66.1841004,13.4128713 C66.1841004,13.4356436 66.1841004,13.9821782 66.1841004,13.9821782 Z" id="Shape"></path>
                <path d="M31.2740586,4.78217822 C26.2573222,4.78217822 22.2301255,8.79009901 22.2301255,13.7316832 C22.2301255,18.6960396 26.2803347,22.6811881 31.2740586,22.6811881 C36.2677824,22.6811881 40.3179916,18.6732673 40.3179916,13.7316832 C40.248954,8.79009901 36.2217573,4.78217822 31.2740586,4.78217822 Z M31.2740586,18.8554455 C28.4435146,18.8554455 26.0962343,16.5326733 26.0962343,13.7316832 C26.0962343,10.9306931 28.4435146,8.60792079 31.2740586,8.60792079 C34.1046025,8.60792079 36.4518828,10.9306931 36.4518828,13.7316832 C36.4518828,16.6237624 34.1046025,18.8554455 31.2740586,18.8554455 Z" id="Shape"></path>
            </g>
        </g>
    </g>
</svg>