<?xml version="1.0" encoding="UTF-8"?>
<svg width="61px" height="23px" viewBox="0 0 61 23" version="1.1" xmlns="http://www.w3.org/2000/svg" xmlns:xlink="http://www.w3.org/1999/xlink">
    <!-- Generator: Sketch 48.2 (47327) - http://www.bohemiancoding.com/sketch -->
    <title>silvan-grey</title>
    <desc>Created with Sketch.</desc>
    <defs></defs>
    <g id="Customer-Logo---Grey-Small" stroke="none" stroke-width="1" fill="none" fill-rule="evenodd" transform="translate(-1608.000000, -880.000000)">
        <g id="silvan-grey" transform="translate(1608.000000, 880.000000)">
            <g id="_x31_1-silvan">
                <g id="Group" fill="#FFFFFF">
                    <path d="M61,1.61758242 L61,1.50384615 C61,0.202197802 59.9665289,0.0252747247 59.5632231,0.012637362 L59.4119835,0.012637362 L59.3867769,0.012637362 L59.2985537,0.012637362 L59.147314,0.012637362 L58.9456612,0.012637362 L58.6809917,0.012637362 L58.3659091,0.012637362 L58.0004132,0.012637362 L57.5845041,0.012637362 L57.1181818,0.012637362 L56.6140496,0.012637362 L56.0595041,0.012637362 L55.4671488,0.012637362 L54.8369835,0.012637362 L54.1690083,0.012637362 L53.4632231,0.012637362 L52.7196281,0.012637362 L51.9382231,0.012637362 L50.2871901,0.012637362 L49.4049587,0.012637362 L48.510124,0.012637362 L47.5900826,0.012637362 L46.6448347,0.012637362 L45.6743802,0.012637362 L44.6913223,0.012637362 L43.6830579,0.012637362 L42.6621901,0.012637362 L41.628719,0.012637362 L40.5826446,0.012637362 L39.5239669,0.012637362 L38.452686,0.012637362 L37.381405,0.012637362 L36.2975207,0.012637362 L35.2136364,0.012637362 L34.1297521,0.012637362 L33.0458678,0.012637362 L31.9619835,0.012637362 L30.8780992,0.012637362 L29.7942149,0.012637362 L28.7229339,0.012637362 L27.6642562,0.012637362 L26.6055785,0.012637362 L25.5595041,0.012637362 L24.5260331,0.012637362 L23.5177686,0.012637362 L22.5221074,0.012637362 L21.5516529,0.012637362 L20.5938017,0.012637362 L19.661157,0.012637362 L18.753719,0.012637362 L17.8714876,0.012637362 L15.3886364,0.012637362 L14.6198347,0.012637362 L13.888843,0.012637362 L13.1956612,0.012637362 L12.5402893,0.012637362 L11.9227273,0.012637362 L11.3555785,0.012637362 L10.838843,0.012637362 L10.3599174,0.012637362 L9.91880165,0.012637362 L9.52809917,0.012637362 L8.30557851,0.012637362 C5.38161157,0.012637362 0,1.39010989 0,7.43076923 L0,17.3258242 L0,17.4395604 L0,17.5659341 C0.0126033058,17.9197802 0.403305785,19.1582418 1.80227273,19.1582418 L54.6731405,19.1582418 C55.4293388,19.1582418 61,18.956044 61,12.4730769 L61,11.5252747 L61,1.61758242 Z" id="Shape"></path>
                    <path d="M59.5758264,0.012637362 L59.4245868,0.012637362 L59.3993802,0.012637362 L59.311157,0.012637362 L59.1599174,0.012637362 L58.9582645,0.012637362 L58.693595,0.012637362 L58.3785124,0.012637362 L58.0130165,0.012637362 L57.5971074,0.012637362 L57.1307851,0.012637362 L56.6266529,0.012637362 L56.0721074,0.012637362 L55.4797521,0.012637362 L54.8495868,0.012637362 L54.1816116,0.012637362 L53.4758264,0.012637362 L52.7322314,0.012637362 L51.9508264,0.012637362 L50.2997934,0.012637362 L49.4049587,0.012637362 L48.510124,0.012637362 L47.5900826,0.012637362 L46.6448347,0.012637362 L45.6743802,0.012637362 L44.6913223,0.012637362 L43.6830579,0.012637362 L42.6621901,0.012637362 L41.628719,0.012637362 L40.5826446,0.012637362 L39.5239669,0.012637362 L38.452686,0.012637362 L37.381405,0.012637362 L36.2975207,0.012637362 L35.2136364,0.012637362 L34.1297521,0.012637362 L33.0458678,0.012637362 L31.9619835,0.012637362 L30.8780992,0.012637362 L29.7942149,0.012637362 L28.7229339,0.012637362 L27.6642562,0.012637362 L26.6055785,0.012637362 L25.5595041,0.012637362 L24.5260331,0.012637362 L23.5177686,0.012637362 L22.5221074,0.012637362 L21.5516529,0.012637362 L20.5938017,0.012637362 L19.661157,0.012637362 L18.753719,0.012637362 L17.8714876,0.012637362 L15.3886364,0.012637362 L14.6198347,0.012637362 L13.888843,0.012637362 L13.1956612,0.012637362 L12.5402893,0.012637362 L11.9227273,0.012637362 L11.3555785,0.012637362 L10.838843,0.012637362 L10.3599174,0.012637362 L9.91880165,0.012637362 L9.52809917,0.012637362 L8.30557851,0.012637362 C5.38161157,0.012637362 0,1.39010989 0,7.43076923 L0,17.3258242 L0,17.4395604 L0,17.5659341 C0.0126033058,17.9197802 0.403305785,19.1582418 1.80227273,19.1582418 L54.6731405,19.1582418 C55.6940083,19.1582418 61,18.956044 61,12.4730769 L61,11.5252747 L61,1.61758242 L61,1.50384615 C61,0.202197802 59.9665289,0.0252747247 59.5758264,0.012637362 Z" id="Shape" fill-rule="nonzero"></path>
                </g>
                <path d="M59.5506198,0.631868132 C60.382438,0.682417582 60.382438,1.27637363 60.382438,1.50384615 L60.382438,1.61758242 L60.382438,11.5252747 L60.382438,12.4730769 C60.382438,14.9626374 59.5128099,16.7192308 57.8113636,17.7049451 C56.4502066,18.4884615 54.9630165,18.539011 54.6731405,18.539011 L1.80227273,18.539011 C0.794008264,18.539011 0.630165289,17.6164835 0.617561983,17.5406593 L0.617561983,17.4395604 L0.617561983,17.3258242 L0.617561983,7.43076923 C0.617561983,4.99175824 1.55020661,3.15934066 3.39028926,1.97142857 C5.33119835,0.72032967 7.63760331,0.619230769 8.30557851,0.619230769 L9.52809917,0.619230769 L9.91880165,0.619230769 L10.3599174,0.619230769 L10.838843,0.619230769 L11.3681818,0.619230769 L11.9353306,0.619230769 L12.5528926,0.619230769 L13.2082645,0.619230769 L13.9014463,0.619230769 L14.632438,0.619230769 L15.4012397,0.619230769 L17.8840909,0.619230769 L18.7663223,0.619230769 L19.6737603,0.619230769 L20.606405,0.619230769 L21.5642562,0.619230769 L22.5347107,0.619230769 L23.5303719,0.619230769 L24.5386364,0.619230769 L25.5721074,0.619230769 L26.6181818,0.619230769 L27.6768595,0.619230769 L28.7355372,0.619230769 L29.8068182,0.619230769 L30.8907025,0.619230769 L31.9745868,0.619230769 L33.0584711,0.619230769 L34.1423554,0.619230769 L35.2262397,0.619230769 L36.310124,0.619230769 L37.3940083,0.619230769 L38.4652893,0.619230769 L39.5365702,0.619230769 L40.5952479,0.619230769 L41.6413223,0.619230769 L42.6747934,0.619230769 L43.6956612,0.619230769 L44.7039256,0.619230769 L45.6869835,0.619230769 L46.657438,0.619230769 L47.602686,0.619230769 L48.5227273,0.619230769 L49.417562,0.619230769 L50.2871901,0.619230769 L51.9382231,0.619230769 L52.7196281,0.619230769 L53.4632231,0.619230769 L54.1690083,0.619230769 L54.8369835,0.619230769 L55.4671488,0.619230769 L56.0595041,0.619230769 L56.6140496,0.619230769 L57.1181818,0.619230769 L57.5845041,0.619230769 L58.0004132,0.619230769 L58.3659091,0.619230769 L58.6809917,0.619230769 L58.9456612,0.619230769 L59.147314,0.619230769 L59.2985537,0.619230769 L59.3867769,0.619230769 L59.4119835,0.619230769 L59.5506198,0.619230769" id="Shape" fill="#8091A6" fill-rule="nonzero"></path>
                <path d="M30.7268595,10.3373626 L30.7520661,10.9565934 L34.4196281,4.25879121 C34.4448347,4.20824176 34.4826446,4.14505495 34.5456612,4.06923077 C34.5960744,4.00604396 34.6716942,3.99340659 34.7221074,3.99340659 L37.7847107,3.99340659 L37.8225207,3.99340659 C37.8477273,3.99340659 37.8477273,4.00604396 37.8729339,4.01868132 C37.9359504,4.05659341 37.9485537,4.11978022 37.9233471,4.18296703 C35.818595,7.83516484 33.713843,11.5126374 31.5082645,15.3543956 C31.4956612,15.3923077 31.4452479,15.4302198 31.3948347,15.4302198 L27.9541322,15.4302198 C27.8911157,15.4302198 27.8407025,15.3796703 27.8280992,15.3164835 C27.7524793,14.4824176 27.4247934,10.5016484 27.1349174,7.03901099 C27.0466942,5.97747253 26.9584711,4.97912088 26.8954545,4.11978022 C26.8954545,4.11978022 26.8954545,4.10714286 26.8954545,4.10714286 C26.8954545,4.04395604 26.9584711,3.99340659 27.0214876,3.99340659 C27.3365702,4.00604396 29.8446281,3.99340659 30.1092975,3.99340659 C30.172314,3.99340659 30.2353306,4.04395604 30.2353306,4.11978022 C30.2353306,4.35989011 30.2857438,4.82747253 30.3739669,5.78791209 L30.4117769,6.17967033 C30.4117769,6.17967033 30.4117769,6.19230769 30.4117769,6.19230769 C30.4873967,7.15274725 30.6134298,8.63131868 30.7016529,9.74340659 C30.7016529,9.9456044 30.7142562,10.1478022 30.7268595,10.3373626" id="Shape" fill="#FFFFFF" fill-rule="nonzero"></path>
                <path d="M15.9683884,3.99340659 L17.5942149,3.99340659 C17.5942149,3.99340659 17.6068182,3.99340659 17.6068182,3.99340659 L19.1570248,3.99340659 C19.1696281,3.99340659 19.1696281,3.99340659 19.1822314,3.99340659 C19.2452479,4.00604396 19.2956612,4.06923077 19.2830579,4.13241758 C19.2326446,4.42307692 18.0857438,9.9456044 17.4177686,13.1175824 C17.2917355,13.7368132 17.1783058,14.2675824 17.102686,14.6467033 C17.0270661,15.0258242 16.9766529,15.2532967 16.9640496,15.3038462 C16.9514463,15.367033 16.9010331,15.4049451 16.8506198,15.4049451 L13.725,15.4049451 C13.7123967,15.4049451 13.7123967,15.4049451 13.6997934,15.4049451 C13.6367769,15.3923077 13.5863636,15.3291209 13.5989669,15.2659341 C13.6241736,15.1142857 13.9896694,13.3450549 14.4181818,11.2598901 C15.0483471,8.1510989 15.8297521,4.32197802 15.867562,4.09450549 C15.8549587,4.03131868 15.9053719,3.99340659 15.9683884,3.99340659" id="Shape" fill="#FFFFFF" fill-rule="nonzero"></path>
                <path d="M22.2322314,12.5362637 C22.2322314,12.5362637 22.2322314,12.5362637 22.2322314,12.5362637 C22.7993802,12.5362637 23.4421488,12.5362637 24.072314,12.5362637 C25.307438,12.5362637 26.5173554,12.5236264 26.9710744,12.5362637 C26.9836777,12.5362637 26.9836777,12.5362637 26.996281,12.5362637 C27.0592975,12.5489011 27.1097107,12.6120879 27.0971074,12.6752747 C27.0340909,13.067033 26.8450413,14.0148352 26.6938017,14.6972527 C26.668595,14.810989 26.6433884,14.9373626 26.6181818,15.0510989 C26.5929752,15.1648352 26.5677686,15.2406593 26.5551653,15.3038462 C26.542562,15.3543956 26.4921488,15.4049451 26.4417355,15.4049451 L18.3630165,15.4049451 C18.3504132,15.4049451 18.3504132,15.4049451 18.3378099,15.4049451 C18.2747934,15.3923077 18.2243802,15.3291209 18.2369835,15.2659341 C18.2873967,14.9752747 19.4342975,9.45274725 20.0896694,6.26813187 C20.2283058,5.58571429 20.3417355,5.05494505 20.4047521,4.73901099 C20.4803719,4.34725275 20.5307851,4.11978022 20.5433884,4.08186813 C20.5559917,4.03131868 20.606405,3.98076923 20.6568182,3.99340659 C21.677686,3.99340659 22.7237603,3.99340659 23.7446281,3.99340659 C23.7572314,3.99340659 23.7572314,3.99340659 23.7698347,3.99340659 C23.8328512,4.00604396 23.8832645,4.06923077 23.8706612,4.13241758 C23.8076446,4.48626374 22.3960744,11.4368132 22.1692149,12.5362637 L22.2322314,12.5362637 Z" id="Shape" fill="#FFFFFF" fill-rule="nonzero"></path>
                <path d="M53.0599174,10.2362637 L53.085124,10.2994505 C53.2741736,9.44010989 53.7404959,7.3043956 54.0681818,5.75 C54.156405,5.35824176 54.2194215,5.01703297 54.282438,4.75164835 C54.3454545,4.47362637 54.3832645,4.25879121 54.4084711,4.13241758 C54.4210744,4.06923077 54.4714876,4.00604396 54.5345041,4.00604396 L57.5088843,4.00604396 C57.5214876,4.00604396 57.5340909,4.00604396 57.5340909,4.00604396 C57.5971074,4.01868132 57.6349174,4.10714286 57.622314,4.17032967 C57.5592975,4.44835165 56.3493802,9.9456044 55.6688017,13.1049451 C55.5301653,13.7494505 55.4167355,14.2802198 55.3411157,14.6340659 C55.2654959,15.0005495 55.2150826,15.228022 55.2024793,15.2785714 C55.2024793,15.3417582 55.1394628,15.3923077 55.0764463,15.3923077 L52.0516529,15.3923077 C52.0012397,15.3923077 51.9508264,15.367033 51.9382231,15.3164835 C51.7113636,14.7225275 50.6022727,11.4368132 49.9847107,9.57912088 C49.8586777,9.18736264 49.7452479,8.88406593 49.6948347,8.69450549 C49.5561983,9.36428571 49.2033058,11.0576923 48.346281,15.2532967 L48.3336777,15.2912088 C48.3210744,15.3543956 48.2706612,15.3923077 48.2076446,15.3923077 L45.3340909,15.3923077 C45.3214876,15.3923077 45.3214876,15.3923077 45.3088843,15.3923077 C45.2458678,15.3796703 45.1954545,15.3164835 45.2206612,15.2532967 C45.2458678,15.1142857 45.4727273,14.0401099 45.7626033,12.6120879 C46.4305785,9.37692308 47.4766529,4.2967033 47.5270661,4.11978022 C47.5396694,4.06923077 47.5900826,4.00604396 47.6404959,4.00604396 L50.7535124,4.00604396 C50.8039256,4.00604396 50.8417355,4.03131868 50.8669421,4.08186813 C51.0811983,4.62527473 52.1272727,7.59505495 52.757438,9.36428571 C52.8708678,9.70549451 52.9716942,9.99615385 53.0599174,10.2362637" id="Shape" fill="#FFFFFF" fill-rule="nonzero"></path>
                <path d="M41.2002066,13.3450549 L40.5070248,8.02472527 C40.5070248,8.02472527 40.5070248,8.01208791 40.5070248,8.01208791 L40.4944215,7.86043956 C39.7004132,9.32637363 36.6252066,15.0510989 36.4613636,15.3417582 C36.436157,15.3796703 36.3983471,15.4175824 36.3479339,15.4175824 L33.2979339,15.4175824 C33.2727273,15.4175824 33.260124,15.4175824 33.2349174,15.4049451 C33.1719008,15.367033 33.1592975,15.3038462 33.1845041,15.2406593 C33.3735537,14.8994505 36.3227273,9.78131868 38.1754132,6.58406593 C38.9820248,5.19395604 39.5743802,4.17032967 39.6373967,4.05659341 C39.65,4.01868132 39.7004132,3.98076923 39.7508264,3.98076923 L42.8260331,3.98076923 C42.8890496,3.98076923 42.9394628,4.01868132 42.9394628,4.08186813 C42.9772727,4.35989011 43.0780992,5.04230769 43.3301653,6.68516484 C43.5822314,8.3532967 43.9981405,11.0071429 44.6661157,15.2659341 C44.6661157,15.2659341 44.6661157,15.2785714 44.6661157,15.2785714 C44.6661157,15.3417582 44.6157025,15.4049451 44.5400826,15.4049451 L41.5530992,15.4049451 C41.4900826,15.4049451 41.4396694,15.367033 41.4270661,15.3038462 C41.3892562,14.9879121 41.2884298,14.2043956 41.2380165,13.7241758 C41.2254132,13.6357143 41.2128099,13.5598901 41.2128099,13.4840659 C41.2002066,13.4208791 41.2002066,13.3703297 41.2002066,13.3450549" id="Shape" fill="#FFFFFF" fill-rule="nonzero"></path>
                <polygon id="Shape" fill="#8091A6" fill-rule="nonzero" points="37.4444215 15.5186813 42.2714876 11.221978 38.3014463 11.2346154"></polygon>
                <path d="M9.47768595,3.26043956 C10.057438,3.26043956 10.7632231,3.31098901 11.4311983,3.48791209 C12.1117769,3.66483516 12.7797521,3.98076923 13.271281,4.51153846 C13.5233471,4.76428571 13.7123967,5.06758242 13.8636364,5.39615385 C13.888843,5.45934066 13.9140496,5.52252747 13.9392562,5.59835165 C14.0904959,6.00274725 14.1661157,6.47032967 14.1661157,6.97582418 C14.1661157,6.97582418 14.1661157,6.98846154 14.1661157,6.98846154 C14.1661157,7.06428571 14.1030992,7.11483516 14.0400826,7.11483516 L11.0152893,7.11483516 C10.9522727,7.11483516 10.8892562,7.06428571 10.8892562,6.98846154 C10.8766529,6.71043956 10.8010331,6.48296703 10.6497934,6.30604396 C10.6245868,6.26813187 10.5993802,6.24285714 10.5615702,6.20494505 C10.5237603,6.17967033 10.4985537,6.14175824 10.4607438,6.11648352 C10.347314,6.02802198 10.1960744,5.9521978 10.0196281,5.91428571 C9.83057851,5.86373626 9.61632231,5.83846154 9.3642562,5.83846154 C8.88533058,5.83846154 8.5072314,5.93956044 8.25516529,6.11648352 C8.01570248,6.29340659 7.87706612,6.54615385 7.87706612,6.86208791 C7.87706612,7.54450549 8.77190083,7.75934066 9.65413223,7.98681319 L9.76756198,8.01208791 C10.1456612,8.08791209 10.5363636,8.17637363 10.8640496,8.30274725 C10.8640496,8.30274725 10.8640496,8.30274725 10.8766529,8.30274725 C11.8092975,8.64395604 12.489876,9.07362637 12.943595,9.6043956 C13.397314,10.1478022 13.6241736,10.8049451 13.6241736,11.5884615 C13.6241736,13.0543956 12.9309917,14.1159341 11.910124,14.810989 C10.9018595,15.506044 9.5785124,15.8346154 8.30557851,15.8346154 C7.04524793,15.8346154 5.94876033,15.5692308 5.10433884,15.0763736 C4.94049587,14.9752747 4.7892562,14.8741758 4.63801653,14.7604396 C4.49938017,14.6467033 4.3607438,14.532967 4.23471074,14.4065934 C4.23471074,14.4065934 4.23471074,14.4065934 4.23471074,14.4065934 C3.97004132,14.1285714 3.74318182,13.8126374 3.59194215,13.4587912 C3.56673554,13.3956044 3.52892562,13.3197802 3.50371901,13.243956 C3.33987603,12.8142857 3.25165289,12.3214286 3.25165289,11.7906593 C3.25165289,11.7148352 3.2768595,11.5884615 3.4785124,11.5884615 L6.61673554,11.5884615 C6.69235537,11.5884615 6.7427686,11.639011 6.7427686,11.7148352 C6.7553719,11.9802198 6.79318182,12.2203297 6.86880165,12.4225275 C6.94442149,12.6247253 7.04524793,12.789011 7.1964876,12.9406593 C7.37293388,13.0796703 7.57458678,13.1681319 7.80144628,13.206044 C8.04090909,13.2565934 8.31818182,13.2692308 8.59545455,13.2692308 C8.99876033,13.2692308 9.41466942,13.1554945 9.72975207,12.9406593 C10.0322314,12.7384615 10.2464876,12.4351648 10.2464876,12.0434066 C10.2464876,11.3230769 9.46508264,11.082967 8.38119835,10.767033 L8.34338843,10.7543956 L7.33512397,10.4510989 C7.33512397,10.4510989 7.32252066,10.4510989 7.32252066,10.4510989 C6.62933884,10.210989 5.93615702,9.90769231 5.39421488,9.41483516 C4.85227273,8.90934066 4.48677686,8.21428571 4.48677686,7.2032967 C4.48677686,5.8510989 5.14214876,4.86538462 6.1,4.22087912 C7.04524793,3.57637363 8.2803719,3.27307692 9.47768595,3.26043956 C9.46508264,3.26043956 9.47768595,3.26043956 9.47768595,3.26043956" id="Shape" fill="#FFFFFF" fill-rule="nonzero"></path>
                <g id="Group" transform="translate(15.250000, 20.472527)" fill="#8091A6" fill-rule="nonzero">
                    <polygon id="Shape" points="0.0378099174 0.278021978 0.56714876 0.278021978 0.882231405 1.64285714 0.882231405 1.64285714 1.60061983 0.278021978 2.09214876 0.278021978 0.932644628 2.36318681 0.56714876 2.36318681"></polygon>
                    <polygon id="Shape" points="2.1677686 0.278021978 2.6214876 0.278021978 2.33161157 2.36318681 1.87789256 2.36318681"></polygon>
                    <path d="M5.46983471,2.22417582 C5.17995868,2.36318681 4.87747934,2.42637363 4.56239669,2.42637363 C3.90702479,2.42637363 3.50371901,1.9967033 3.59194215,1.32692308 C3.68016529,0.657142857 4.22210744,0.227472527 4.86487603,0.227472527 C5.19256198,0.227472527 5.48243802,0.303296703 5.6588843,0.492857143 L5.28078512,0.846703297 C5.17995868,0.72032967 5.04132231,0.644505495 4.8018595,0.644505495 C4.41115702,0.644505495 4.10867769,0.922527473 4.05826446,1.31428571 C4.00785124,1.70604396 4.22210744,1.98406593 4.61280992,1.98406593 C4.81446281,1.98406593 4.96570248,1.93351648 5.06652893,1.88296703 L5.11694215,1.54175824 L4.73884298,1.54175824 L4.8018595,1.11208791 L5.62107438,1.11208791 L5.46983471,2.22417582 Z" id="Shape"></path>
                    <path d="M5.99917355,2.07252747 C5.84793388,1.88296703 5.78491736,1.63021978 5.83533058,1.31428571 C5.92355372,0.644505495 6.46549587,0.214835165 7.10826446,0.214835165 C7.36033058,0.214835165 7.58719008,0.278021978 7.75103306,0.404395604 L8.0661157,0.113736264 L8.20475207,0.252747253 L7.90227273,0.543406593 C8.0535124,0.732967033 8.12913223,0.998351648 8.07871901,1.31428571 C7.99049587,1.98406593 7.44855372,2.41373626 6.79318182,2.41373626 C6.5285124,2.41373626 6.30165289,2.33791209 6.13780992,2.21153846 L5.82272727,2.51483516 L5.68409091,2.37582418 L5.99917355,2.07252747 Z M7.3981405,0.745604396 C7.30991736,0.682417582 7.1838843,0.644505495 7.04524793,0.644505495 C6.65454545,0.644505495 6.35206612,0.922527473 6.30165289,1.31428571 C6.27644628,1.46593407 6.30165289,1.60494505 6.35206612,1.71868132 L7.3981405,0.745604396 Z M6.50330579,1.88296703 C6.59152893,1.95879121 6.71756198,1.9967033 6.86880165,1.9967033 C7.25950413,1.9967033 7.54938017,1.71868132 7.61239669,1.32692308 C7.63760331,1.16263736 7.61239669,1.01098901 7.53677686,0.90989011 L6.50330579,1.88296703 Z" id="Shape"></path>
                    <path d="M8.5072314,0.278021978 L9.31384298,0.278021978 C9.74235537,0.278021978 10.0826446,0.42967033 10.0070248,0.90989011 C9.96921488,1.20054945 9.78016529,1.42802198 9.47768595,1.47857143 L9.88099174,2.36318681 L9.32644628,2.36318681 L9.01136364,1.52912088 L8.78450413,1.52912088 L8.67107438,2.36318681 L8.21735537,2.36318681 L8.5072314,0.278021978 Z M8.84752066,1.13736264 L9.12479339,1.13736264 C9.28863636,1.13736264 9.51549587,1.13736264 9.54070248,0.90989011 C9.56590909,0.695054945 9.38946281,0.66978022 9.22561983,0.66978022 L8.9231405,0.66978022 L8.84752066,1.13736264 Z" id="Shape"></path>
                    <path d="M11.2421488,0.278021978 L11.9353306,0.278021978 C12.6033058,0.278021978 13.1326446,0.568681319 13.0192149,1.32692308 C12.9309917,2.00934066 12.3260331,2.36318681 11.7084711,2.36318681 L10.9522727,2.36318681 L11.2421488,0.278021978 Z M11.4690083,1.94615385 L11.7084711,1.94615385 C12.1369835,1.94615385 12.4772727,1.78186813 12.5528926,1.31428571 C12.6033058,0.90989011 12.3134298,0.707692308 11.9227273,0.707692308 L11.6580579,0.707692308 L11.4690083,1.94615385 Z" id="Shape"></path>
                    <polygon id="Shape" points="13.4225207 0.278021978 14.8340909 0.278021978 14.7710744 0.707692308 13.8132231 0.707692308 13.7628099 1.09945055 14.6702479 1.09945055 14.6072314 1.52912088 13.6997934 1.52912088 13.6367769 1.95879121 14.6450413 1.95879121 14.5820248 2.38846154 13.107438 2.38846154"></polygon>
                    <polygon id="Shape" points="15.4390496 0.682417582 14.8466942 0.682417582 14.9097107 0.278021978 16.5607438 0.278021978 16.4977273 0.682417582 15.9053719 0.682417582 15.6659091 2.36318681 15.2121901 2.36318681"></polygon>
                    <path d="M18.5520661,0.783516484 C18.4890496,0.695054945 18.3504132,0.644505495 18.2369835,0.644505495 C18.1109504,0.644505495 17.9219008,0.707692308 17.8966942,0.859340659 C17.846281,1.23846154 18.8419421,0.998351648 18.7285124,1.73131868 C18.6654959,2.1989011 18.2621901,2.41373626 17.8210744,2.41373626 C17.556405,2.41373626 17.3295455,2.33791209 17.1530992,2.14835165 L17.5311983,1.78186813 C17.6068182,1.90824176 17.7580579,1.98406593 17.9092975,1.98406593 C18.0605372,1.98406593 18.2369835,1.90824176 18.2621901,1.76923077 C18.3126033,1.39010989 17.3169421,1.59230769 17.4051653,0.897252747 C17.4681818,0.454945055 17.8840909,0.214835165 18.3,0.214835165 C18.5394628,0.214835165 18.753719,0.278021978 18.9049587,0.42967033 L18.5520661,0.783516484 Z" id="Shape"></path>
                    <path d="M19.8123967,0.278021978 L20.1904959,0.278021978 L20.8080579,2.36318681 L20.2913223,2.36318681 L20.1778926,1.92087912 L19.371281,1.92087912 L19.1318182,2.36318681 L18.627686,2.36318681 L19.8123967,0.278021978 Z M19.9006198,0.884615385 L19.5603306,1.52912088 L20.0644628,1.52912088 L19.9006198,0.884615385 Z" id="Shape"></path>
                    <polygon id="Shape" points="21.186157 0.278021978 21.8793388 0.278021978 22.1692149 1.64285714 22.1692149 1.64285714 22.8497934 0.278021978 23.5429752 0.278021978 23.2530992 2.36318681 22.7993802 2.36318681 23.0262397 0.758241758 23.0262397 0.758241758 22.257438 2.36318681 21.9045455 2.36318681 21.6020661 0.758241758 21.6020661 0.758241758 21.3752066 2.36318681 20.9214876 2.36318681"></polygon>
                    <polygon id="Shape" points="23.946281 0.278021978 24.6394628 0.278021978 24.9293388 1.64285714 24.9293388 1.64285714 25.6099174 0.278021978 26.3030992 0.278021978 26.0132231 2.36318681 25.5595041 2.36318681 25.7863636 0.758241758 25.7863636 0.758241758 25.017562 2.36318681 24.6646694 2.36318681 24.3621901 0.758241758 24.3621901 0.758241758 24.1353306 2.36318681 23.6816116 2.36318681"></polygon>
                    <polygon id="Shape" points="26.706405 0.278021978 28.1179752 0.278021978 28.0549587 0.707692308 27.0971074 0.707692308 27.0466942 1.09945055 27.9541322 1.09945055 27.8911157 1.52912088 26.9836777 1.52912088 26.9206612 1.95879121 27.9289256 1.95879121 27.8659091 2.38846154 26.3913223 2.38846154"></polygon>
                    <polygon id="Shape" points="28.4834711 0.278021978 29.1136364 0.278021978 29.7942149 1.73131868 29.7942149 1.73131868 29.9958678 0.278021978 30.4495868 0.278021978 30.1597107 2.36318681 29.5547521 2.36318681 28.8615702 0.884615385 28.8615702 0.884615385 28.647314 2.37582418 28.193595 2.37582418"></polygon>
                </g>
            </g>
        </g>
    </g>
</svg>